ISO-10303-21;
HEADER;
/* Generated by software containing ST-Developer
 * from STEP Tools, Inc. (www.steptools.com) 
 */
/* OPTION: using custom renumber hook */

FILE_DESCRIPTION(
/* description */ ('STEP AP242 Edition 2',
'CAx-IF Rec.Pracs.---Representation and Presentation of Product Manufa
cturing Information (PMI)---4.0---2014-10-13',
'CAx-IF Rec.Pracs.---3D Tessellated Geometry---0.4---2014-09-14','2;1',
'CAx-IF Rec.Pracs.---User Defined Attributes---1.5---2016-08-15'),
/* implementation_level */ '2;1');

FILE_NAME(
/* name */ 'A',
/* time_stamp */ '2026-05-24T19:26:18Z',
/* author */ (''),
/* organization */ (''),
/* preprocessor_version */ 'ST-DEVELOPER v20',
/* originating_system */ 'ONSHAPE BY PTC INC, 1.215',
/* authorisation */ '  ');

FILE_SCHEMA (('AP242_MANAGED_MODEL_BASED_3D_ENGINEERING_MIM_LF { 1 0 10303 442 3 1 4 }'));
ENDSEC;

DATA;
#10=TOROIDAL_SURFACE('',#744,0.002925,0.00075);
#11=CYLINDRICAL_SURFACE('',#733,0.003675);
#12=CYLINDRICAL_SURFACE('',#741,0.0017);
#13=CYLINDRICAL_SURFACE('',#751,0.00075);
#14=CYLINDRICAL_SURFACE('',#752,0.00075);
#15=CIRCLE('',#732,0.002925);
#16=CIRCLE('',#734,0.003675);
#17=CIRCLE('',#735,0.003675);
#18=CIRCLE('',#736,0.003675);
#19=CIRCLE('',#738,0.0017);
#20=CIRCLE('',#739,0.00075);
#21=CIRCLE('',#740,0.00075);
#22=CIRCLE('',#742,0.0017);
#23=CIRCLE('',#749,0.00075);
#24=CIRCLE('',#750,0.00075);
#25=SHAPE_REPRESENTATION_RELATIONSHIP('','',#710,#28);
#26=SHAPE_REPRESENTATION_RELATIONSHIP('','',#711,#29);
#27=SHAPE_REPRESENTATION_RELATIONSHIP('','',#712,#30);
#28=ADVANCED_BREP_SHAPE_REPRESENTATION('',(#704),#1144);
#29=ADVANCED_BREP_SHAPE_REPRESENTATION('',(#705),#1145);
#30=ADVANCED_BREP_SHAPE_REPRESENTATION('',(#706),#1146);
#31=ORIENTED_EDGE('',*,*,#207,.T.);
#32=ORIENTED_EDGE('',*,*,#208,.F.);
#33=ORIENTED_EDGE('',*,*,#209,.F.);
#34=ORIENTED_EDGE('',*,*,#210,.T.);
#35=ORIENTED_EDGE('',*,*,#211,.T.);
#36=ORIENTED_EDGE('',*,*,#210,.F.);
#37=ORIENTED_EDGE('',*,*,#212,.F.);
#38=ORIENTED_EDGE('',*,*,#213,.T.);
#39=ORIENTED_EDGE('',*,*,#214,.T.);
#40=ORIENTED_EDGE('',*,*,#213,.F.);
#41=ORIENTED_EDGE('',*,*,#215,.F.);
#42=ORIENTED_EDGE('',*,*,#216,.T.);
#43=ORIENTED_EDGE('',*,*,#217,.T.);
#44=ORIENTED_EDGE('',*,*,#216,.F.);
#45=ORIENTED_EDGE('',*,*,#218,.F.);
#46=ORIENTED_EDGE('',*,*,#219,.T.);
#47=ORIENTED_EDGE('',*,*,#220,.T.);
#48=ORIENTED_EDGE('',*,*,#219,.F.);
#49=ORIENTED_EDGE('',*,*,#221,.F.);
#50=ORIENTED_EDGE('',*,*,#222,.T.);
#51=ORIENTED_EDGE('',*,*,#223,.T.);
#52=ORIENTED_EDGE('',*,*,#222,.F.);
#53=ORIENTED_EDGE('',*,*,#224,.F.);
#54=ORIENTED_EDGE('',*,*,#225,.T.);
#55=ORIENTED_EDGE('',*,*,#226,.T.);
#56=ORIENTED_EDGE('',*,*,#225,.F.);
#57=ORIENTED_EDGE('',*,*,#227,.F.);
#58=ORIENTED_EDGE('',*,*,#208,.T.);
#59=ORIENTED_EDGE('',*,*,#209,.T.);
#60=ORIENTED_EDGE('',*,*,#227,.T.);
#61=ORIENTED_EDGE('',*,*,#224,.T.);
#62=ORIENTED_EDGE('',*,*,#221,.T.);
#63=ORIENTED_EDGE('',*,*,#218,.T.);
#64=ORIENTED_EDGE('',*,*,#215,.T.);
#65=ORIENTED_EDGE('',*,*,#212,.T.);
#66=ORIENTED_EDGE('',*,*,#207,.F.);
#67=ORIENTED_EDGE('',*,*,#211,.F.);
#68=ORIENTED_EDGE('',*,*,#214,.F.);
#69=ORIENTED_EDGE('',*,*,#217,.F.);
#70=ORIENTED_EDGE('',*,*,#220,.F.);
#71=ORIENTED_EDGE('',*,*,#223,.F.);
#72=ORIENTED_EDGE('',*,*,#226,.F.);
#73=ORIENTED_EDGE('',*,*,#228,.T.);
#74=ORIENTED_EDGE('',*,*,#229,.F.);
#75=ORIENTED_EDGE('',*,*,#230,.F.);
#76=ORIENTED_EDGE('',*,*,#231,.T.);
#77=ORIENTED_EDGE('',*,*,#232,.T.);
#78=ORIENTED_EDGE('',*,*,#231,.F.);
#79=ORIENTED_EDGE('',*,*,#233,.F.);
#80=ORIENTED_EDGE('',*,*,#234,.T.);
#81=ORIENTED_EDGE('',*,*,#235,.T.);
#82=ORIENTED_EDGE('',*,*,#234,.F.);
#83=ORIENTED_EDGE('',*,*,#236,.F.);
#84=ORIENTED_EDGE('',*,*,#237,.T.);
#85=ORIENTED_EDGE('',*,*,#238,.T.);
#86=ORIENTED_EDGE('',*,*,#237,.F.);
#87=ORIENTED_EDGE('',*,*,#239,.F.);
#88=ORIENTED_EDGE('',*,*,#229,.T.);
#89=ORIENTED_EDGE('',*,*,#230,.T.);
#90=ORIENTED_EDGE('',*,*,#239,.T.);
#91=ORIENTED_EDGE('',*,*,#236,.T.);
#92=ORIENTED_EDGE('',*,*,#233,.T.);
#93=ORIENTED_EDGE('',*,*,#228,.F.);
#94=ORIENTED_EDGE('',*,*,#232,.F.);
#95=ORIENTED_EDGE('',*,*,#235,.F.);
#96=ORIENTED_EDGE('',*,*,#238,.F.);
#97=ORIENTED_EDGE('',*,*,#240,.T.);
#98=ORIENTED_EDGE('',*,*,#241,.T.);
#99=ORIENTED_EDGE('',*,*,#242,.T.);
#100=ORIENTED_EDGE('',*,*,#243,.T.);
#101=ORIENTED_EDGE('',*,*,#244,.T.);
#102=ORIENTED_EDGE('',*,*,#245,.T.);
#103=ORIENTED_EDGE('',*,*,#246,.T.);
#104=ORIENTED_EDGE('',*,*,#247,.T.);
#105=ORIENTED_EDGE('',*,*,#248,.T.);
#106=ORIENTED_EDGE('',*,*,#249,.T.);
#107=ORIENTED_EDGE('',*,*,#250,.T.);
#108=ORIENTED_EDGE('',*,*,#251,.T.);
#109=ORIENTED_EDGE('',*,*,#252,.T.);
#110=ORIENTED_EDGE('',*,*,#253,.F.);
#111=ORIENTED_EDGE('',*,*,#254,.T.);
#112=ORIENTED_EDGE('',*,*,#255,.T.);
#113=ORIENTED_EDGE('',*,*,#256,.T.);
#114=ORIENTED_EDGE('',*,*,#257,.F.);
#115=ORIENTED_EDGE('',*,*,#258,.T.);
#116=ORIENTED_EDGE('',*,*,#259,.T.);
#117=ORIENTED_EDGE('',*,*,#260,.F.);
#118=ORIENTED_EDGE('',*,*,#261,.T.);
#119=ORIENTED_EDGE('',*,*,#262,.F.);
#120=ORIENTED_EDGE('',*,*,#256,.F.);
#121=ORIENTED_EDGE('',*,*,#263,.F.);
#122=ORIENTED_EDGE('',*,*,#257,.T.);
#123=ORIENTED_EDGE('',*,*,#263,.T.);
#124=ORIENTED_EDGE('',*,*,#252,.F.);
#125=ORIENTED_EDGE('',*,*,#240,.F.);
#126=ORIENTED_EDGE('',*,*,#262,.T.);
#127=ORIENTED_EDGE('',*,*,#264,.T.);
#128=ORIENTED_EDGE('',*,*,#265,.F.);
#129=ORIENTED_EDGE('',*,*,#253,.T.);
#130=ORIENTED_EDGE('',*,*,#260,.T.);
#131=ORIENTED_EDGE('',*,*,#266,.T.);
#132=ORIENTED_EDGE('',*,*,#267,.F.);
#133=ORIENTED_EDGE('',*,*,#268,.T.);
#134=ORIENTED_EDGE('',*,*,#269,.T.);
#135=ORIENTED_EDGE('',*,*,#270,.T.);
#136=ORIENTED_EDGE('',*,*,#258,.F.);
#137=ORIENTED_EDGE('',*,*,#255,.F.);
#138=ORIENTED_EDGE('',*,*,#267,.T.);
#139=ORIENTED_EDGE('',*,*,#271,.T.);
#140=ORIENTED_EDGE('',*,*,#269,.F.);
#141=ORIENTED_EDGE('',*,*,#254,.F.);
#142=ORIENTED_EDGE('',*,*,#265,.T.);
#143=ORIENTED_EDGE('',*,*,#272,.T.);
#144=ORIENTED_EDGE('',*,*,#271,.F.);
#145=ORIENTED_EDGE('',*,*,#266,.F.);
#146=ORIENTED_EDGE('',*,*,#259,.F.);
#147=ORIENTED_EDGE('',*,*,#270,.F.);
#148=ORIENTED_EDGE('',*,*,#272,.F.);
#149=ORIENTED_EDGE('',*,*,#264,.F.);
#150=ORIENTED_EDGE('',*,*,#261,.F.);
#151=ORIENTED_EDGE('',*,*,#268,.F.);
#152=ORIENTED_EDGE('',*,*,#242,.F.);
#153=ORIENTED_EDGE('',*,*,#273,.F.);
#154=ORIENTED_EDGE('',*,*,#274,.T.);
#155=ORIENTED_EDGE('',*,*,#275,.T.);
#156=ORIENTED_EDGE('',*,*,#241,.F.);
#157=ORIENTED_EDGE('',*,*,#276,.F.);
#158=ORIENTED_EDGE('',*,*,#277,.T.);
#159=ORIENTED_EDGE('',*,*,#273,.T.);
#160=ORIENTED_EDGE('',*,*,#247,.F.);
#161=ORIENTED_EDGE('',*,*,#278,.F.);
#162=ORIENTED_EDGE('',*,*,#279,.T.);
#163=ORIENTED_EDGE('',*,*,#276,.T.);
#164=ORIENTED_EDGE('',*,*,#246,.F.);
#165=ORIENTED_EDGE('',*,*,#280,.F.);
#166=ORIENTED_EDGE('',*,*,#281,.T.);
#167=ORIENTED_EDGE('',*,*,#278,.T.);
#168=ORIENTED_EDGE('',*,*,#245,.F.);
#169=ORIENTED_EDGE('',*,*,#282,.F.);
#170=ORIENTED_EDGE('',*,*,#283,.T.);
#171=ORIENTED_EDGE('',*,*,#280,.T.);
#172=ORIENTED_EDGE('',*,*,#244,.F.);
#173=ORIENTED_EDGE('',*,*,#284,.F.);
#174=ORIENTED_EDGE('',*,*,#285,.T.);
#175=ORIENTED_EDGE('',*,*,#282,.T.);
#176=ORIENTED_EDGE('',*,*,#243,.F.);
#177=ORIENTED_EDGE('',*,*,#275,.F.);
#178=ORIENTED_EDGE('',*,*,#286,.T.);
#179=ORIENTED_EDGE('',*,*,#284,.T.);
#180=ORIENTED_EDGE('',*,*,#274,.F.);
#181=ORIENTED_EDGE('',*,*,#277,.F.);
#182=ORIENTED_EDGE('',*,*,#279,.F.);
#183=ORIENTED_EDGE('',*,*,#281,.F.);
#184=ORIENTED_EDGE('',*,*,#283,.F.);
#185=ORIENTED_EDGE('',*,*,#285,.F.);
#186=ORIENTED_EDGE('',*,*,#286,.F.);
#187=ORIENTED_EDGE('',*,*,#249,.F.);
#188=ORIENTED_EDGE('',*,*,#287,.F.);
#189=ORIENTED_EDGE('',*,*,#288,.T.);
#190=ORIENTED_EDGE('',*,*,#289,.T.);
#191=ORIENTED_EDGE('',*,*,#248,.F.);
#192=ORIENTED_EDGE('',*,*,#290,.F.);
#193=ORIENTED_EDGE('',*,*,#291,.T.);
#194=ORIENTED_EDGE('',*,*,#287,.T.);
#195=ORIENTED_EDGE('',*,*,#251,.F.);
#196=ORIENTED_EDGE('',*,*,#292,.F.);
#197=ORIENTED_EDGE('',*,*,#293,.T.);
#198=ORIENTED_EDGE('',*,*,#290,.T.);
#199=ORIENTED_EDGE('',*,*,#250,.F.);
#200=ORIENTED_EDGE('',*,*,#289,.F.);
#201=ORIENTED_EDGE('',*,*,#294,.T.);
#202=ORIENTED_EDGE('',*,*,#292,.T.);
#203=ORIENTED_EDGE('',*,*,#288,.F.);
#204=ORIENTED_EDGE('',*,*,#291,.F.);
#205=ORIENTED_EDGE('',*,*,#293,.F.);
#206=ORIENTED_EDGE('',*,*,#294,.F.);
#207=EDGE_CURVE('',#295,#296,#355,.T.);
#208=EDGE_CURVE('',#297,#296,#356,.T.);
#209=EDGE_CURVE('',#298,#297,#357,.T.);
#210=EDGE_CURVE('',#298,#295,#358,.T.);
#211=EDGE_CURVE('',#299,#295,#359,.T.);
#212=EDGE_CURVE('',#300,#298,#360,.T.);
#213=EDGE_CURVE('',#300,#299,#361,.T.);
#214=EDGE_CURVE('',#301,#299,#362,.T.);
#215=EDGE_CURVE('',#302,#300,#363,.T.);
#216=EDGE_CURVE('',#302,#301,#364,.T.);
#217=EDGE_CURVE('',#303,#301,#365,.T.);
#218=EDGE_CURVE('',#304,#302,#366,.T.);
#219=EDGE_CURVE('',#304,#303,#367,.T.);
#220=EDGE_CURVE('',#305,#303,#368,.T.);
#221=EDGE_CURVE('',#306,#304,#369,.T.);
#222=EDGE_CURVE('',#306,#305,#370,.T.);
#223=EDGE_CURVE('',#307,#305,#371,.T.);
#224=EDGE_CURVE('',#308,#306,#372,.T.);
#225=EDGE_CURVE('',#308,#307,#373,.T.);
#226=EDGE_CURVE('',#296,#307,#374,.T.);
#227=EDGE_CURVE('',#297,#308,#375,.T.);
#228=EDGE_CURVE('',#309,#310,#376,.T.);
#229=EDGE_CURVE('',#311,#310,#377,.T.);
#230=EDGE_CURVE('',#312,#311,#378,.T.);
#231=EDGE_CURVE('',#312,#309,#379,.T.);
#232=EDGE_CURVE('',#313,#309,#380,.T.);
#233=EDGE_CURVE('',#314,#312,#381,.T.);
#234=EDGE_CURVE('',#314,#313,#382,.T.);
#235=EDGE_CURVE('',#315,#313,#383,.T.);
#236=EDGE_CURVE('',#316,#314,#384,.T.);
#237=EDGE_CURVE('',#316,#315,#385,.T.);
#238=EDGE_CURVE('',#310,#315,#386,.T.);
#239=EDGE_CURVE('',#311,#316,#387,.T.);
#240=EDGE_CURVE('',#317,#317,#15,.T.);
#241=EDGE_CURVE('',#318,#319,#388,.T.);
#242=EDGE_CURVE('',#319,#320,#389,.T.);
#243=EDGE_CURVE('',#320,#321,#390,.T.);
#244=EDGE_CURVE('',#321,#322,#391,.T.);
#245=EDGE_CURVE('',#322,#323,#392,.T.);
#246=EDGE_CURVE('',#323,#324,#393,.T.);
#247=EDGE_CURVE('',#324,#318,#394,.T.);
#248=EDGE_CURVE('',#325,#326,#395,.T.);
#249=EDGE_CURVE('',#326,#327,#396,.T.);
#250=EDGE_CURVE('',#327,#328,#397,.T.);
#251=EDGE_CURVE('',#328,#325,#398,.T.);
#252=EDGE_CURVE('',#329,#329,#16,.F.);
#253=EDGE_CURVE('',#330,#331,#399,.T.);
#254=EDGE_CURVE('',#330,#332,#17,.T.);
#255=EDGE_CURVE('',#332,#333,#400,.T.);
#256=EDGE_CURVE('',#333,#331,#18,.T.);
#257=EDGE_CURVE('',#334,#334,#19,.T.);
#258=EDGE_CURVE('',#333,#335,#401,.T.);
#259=EDGE_CURVE('',#335,#336,#20,.F.);
#260=EDGE_CURVE('',#337,#336,#402,.T.);
#261=EDGE_CURVE('',#337,#338,#21,.F.);
#262=EDGE_CURVE('',#331,#338,#403,.T.);
#263=EDGE_CURVE('',#339,#339,#22,.T.);
#264=EDGE_CURVE('',#338,#340,#404,.F.);
#265=EDGE_CURVE('',#330,#340,#405,.T.);
#266=EDGE_CURVE('',#336,#341,#406,.F.);
#267=EDGE_CURVE('',#342,#341,#407,.T.);
#268=EDGE_CURVE('',#342,#337,#408,.T.);
#269=EDGE_CURVE('',#332,#343,#409,.T.);
#270=EDGE_CURVE('',#343,#335,#410,.T.);
#271=EDGE_CURVE('',#341,#343,#23,.T.);
#272=EDGE_CURVE('',#340,#342,#24,.T.);
#273=EDGE_CURVE('',#344,#319,#411,.T.);
#274=EDGE_CURVE('',#344,#345,#412,.T.);
#275=EDGE_CURVE('',#345,#320,#413,.T.);
#276=EDGE_CURVE('',#346,#318,#414,.T.);
#277=EDGE_CURVE('',#346,#344,#415,.T.);
#278=EDGE_CURVE('',#347,#324,#416,.T.);
#279=EDGE_CURVE('',#347,#346,#417,.T.);
#280=EDGE_CURVE('',#348,#323,#418,.T.);
#281=EDGE_CURVE('',#348,#347,#419,.T.);
#282=EDGE_CURVE('',#349,#322,#420,.T.);
#283=EDGE_CURVE('',#349,#348,#421,.T.);
#284=EDGE_CURVE('',#350,#321,#422,.T.);
#285=EDGE_CURVE('',#350,#349,#423,.T.);
#286=EDGE_CURVE('',#345,#350,#424,.T.);
#287=EDGE_CURVE('',#351,#326,#425,.T.);
#288=EDGE_CURVE('',#351,#352,#426,.T.);
#289=EDGE_CURVE('',#352,#327,#427,.T.);
#290=EDGE_CURVE('',#353,#325,#428,.T.);
#291=EDGE_CURVE('',#353,#351,#429,.T.);
#292=EDGE_CURVE('',#354,#328,#430,.T.);
#293=EDGE_CURVE('',#354,#353,#431,.T.);
#294=EDGE_CURVE('',#352,#354,#432,.T.);
#295=VERTEX_POINT('',#953);
#296=VERTEX_POINT('',#954);
#297=VERTEX_POINT('',#956);
#298=VERTEX_POINT('',#958);
#299=VERTEX_POINT('',#962);
#300=VERTEX_POINT('',#964);
#301=VERTEX_POINT('',#968);
#302=VERTEX_POINT('',#970);
#303=VERTEX_POINT('',#974);
#304=VERTEX_POINT('',#976);
#305=VERTEX_POINT('',#980);
#306=VERTEX_POINT('',#982);
#307=VERTEX_POINT('',#986);
#308=VERTEX_POINT('',#988);
#309=VERTEX_POINT('',#998);
#310=VERTEX_POINT('',#999);
#311=VERTEX_POINT('',#1001);
#312=VERTEX_POINT('',#1003);
#313=VERTEX_POINT('',#1007);
#314=VERTEX_POINT('',#1009);
#315=VERTEX_POINT('',#1013);
#316=VERTEX_POINT('',#1015);
#317=VERTEX_POINT('',#1025);
#318=VERTEX_POINT('',#1027);
#319=VERTEX_POINT('',#1028);
#320=VERTEX_POINT('',#1030);
#321=VERTEX_POINT('',#1032);
#322=VERTEX_POINT('',#1034);
#323=VERTEX_POINT('',#1036);
#324=VERTEX_POINT('',#1038);
#325=VERTEX_POINT('',#1041);
#326=VERTEX_POINT('',#1042);
#327=VERTEX_POINT('',#1044);
#328=VERTEX_POINT('',#1046);
#329=VERTEX_POINT('',#1050);
#330=VERTEX_POINT('',#1052);
#331=VERTEX_POINT('',#1053);
#332=VERTEX_POINT('',#1055);
#333=VERTEX_POINT('',#1057);
#334=VERTEX_POINT('',#1061);
#335=VERTEX_POINT('',#1063);
#336=VERTEX_POINT('',#1065);
#337=VERTEX_POINT('',#1067);
#338=VERTEX_POINT('',#1069);
#339=VERTEX_POINT('',#1073);
#340=VERTEX_POINT('',#1078);
#341=VERTEX_POINT('',#1082);
#342=VERTEX_POINT('',#1084);
#343=VERTEX_POINT('',#1088);
#344=VERTEX_POINT('',#1097);
#345=VERTEX_POINT('',#1099);
#346=VERTEX_POINT('',#1103);
#347=VERTEX_POINT('',#1107);
#348=VERTEX_POINT('',#1111);
#349=VERTEX_POINT('',#1115);
#350=VERTEX_POINT('',#1119);
#351=VERTEX_POINT('',#1126);
#352=VERTEX_POINT('',#1128);
#353=VERTEX_POINT('',#1132);
#354=VERTEX_POINT('',#1136);
#355=LINE('',#952,#433);
#356=LINE('',#955,#434);
#357=LINE('',#957,#435);
#358=LINE('',#959,#436);
#359=LINE('',#961,#437);
#360=LINE('',#963,#438);
#361=LINE('',#965,#439);
#362=LINE('',#967,#440);
#363=LINE('',#969,#441);
#364=LINE('',#971,#442);
#365=LINE('',#973,#443);
#366=LINE('',#975,#444);
#367=LINE('',#977,#445);
#368=LINE('',#979,#446);
#369=LINE('',#981,#447);
#370=LINE('',#983,#448);
#371=LINE('',#985,#449);
#372=LINE('',#987,#450);
#373=LINE('',#989,#451);
#374=LINE('',#991,#452);
#375=LINE('',#992,#453);
#376=LINE('',#997,#454);
#377=LINE('',#1000,#455);
#378=LINE('',#1002,#456);
#379=LINE('',#1004,#457);
#380=LINE('',#1006,#458);
#381=LINE('',#1008,#459);
#382=LINE('',#1010,#460);
#383=LINE('',#1012,#461);
#384=LINE('',#1014,#462);
#385=LINE('',#1016,#463);
#386=LINE('',#1018,#464);
#387=LINE('',#1019,#465);
#388=LINE('',#1026,#466);
#389=LINE('',#1029,#467);
#390=LINE('',#1031,#468);
#391=LINE('',#1033,#469);
#392=LINE('',#1035,#470);
#393=LINE('',#1037,#471);
#394=LINE('',#1039,#472);
#395=LINE('',#1040,#473);
#396=LINE('',#1043,#474);
#397=LINE('',#1045,#475);
#398=LINE('',#1047,#476);
#399=LINE('',#1051,#477);
#400=LINE('',#1056,#478);
#401=LINE('',#1062,#479);
#402=LINE('',#1066,#480);
#403=LINE('',#1070,#481);
#404=LINE('',#1077,#482);
#405=LINE('',#1079,#483);
#406=LINE('',#1081,#484);
#407=LINE('',#1083,#485);
#408=LINE('',#1085,#486);
#409=LINE('',#1087,#487);
#410=LINE('',#1089,#488);
#411=LINE('',#1096,#489);
#412=LINE('',#1098,#490);
#413=LINE('',#1100,#491);
#414=LINE('',#1102,#492);
#415=LINE('',#1104,#493);
#416=LINE('',#1106,#494);
#417=LINE('',#1108,#495);
#418=LINE('',#1110,#496);
#419=LINE('',#1112,#497);
#420=LINE('',#1114,#498);
#421=LINE('',#1116,#499);
#422=LINE('',#1118,#500);
#423=LINE('',#1120,#501);
#424=LINE('',#1122,#502);
#425=LINE('',#1125,#503);
#426=LINE('',#1127,#504);
#427=LINE('',#1129,#505);
#428=LINE('',#1131,#506);
#429=LINE('',#1133,#507);
#430=LINE('',#1135,#508);
#431=LINE('',#1137,#509);
#432=LINE('',#1139,#510);
#433=VECTOR('',#770,1.);
#434=VECTOR('',#771,1.);
#435=VECTOR('',#772,1.);
#436=VECTOR('',#773,1.);
#437=VECTOR('',#776,1.);
#438=VECTOR('',#777,1.);
#439=VECTOR('',#778,1.);
#440=VECTOR('',#781,1.);
#441=VECTOR('',#782,1.);
#442=VECTOR('',#783,1.);
#443=VECTOR('',#786,1.);
#444=VECTOR('',#787,1.);
#445=VECTOR('',#788,1.);
#446=VECTOR('',#791,1.);
#447=VECTOR('',#792,1.);
#448=VECTOR('',#793,1.);
#449=VECTOR('',#796,1.);
#450=VECTOR('',#797,1.);
#451=VECTOR('',#798,1.);
#452=VECTOR('',#801,1.);
#453=VECTOR('',#802,1.);
#454=VECTOR('',#811,1.);
#455=VECTOR('',#812,1.);
#456=VECTOR('',#813,1.);
#457=VECTOR('',#814,1.);
#458=VECTOR('',#817,1.);
#459=VECTOR('',#818,1.);
#460=VECTOR('',#819,1.);
#461=VECTOR('',#822,1.);
#462=VECTOR('',#823,1.);
#463=VECTOR('',#824,1.);
#464=VECTOR('',#827,1.);
#465=VECTOR('',#828,1.);
#466=VECTOR('',#839,1.);
#467=VECTOR('',#840,1.);
#468=VECTOR('',#841,1.);
#469=VECTOR('',#842,1.);
#470=VECTOR('',#843,1.);
#471=VECTOR('',#844,1.);
#472=VECTOR('',#845,1.);
#473=VECTOR('',#846,1.);
#474=VECTOR('',#847,1.);
#475=VECTOR('',#848,1.);
#476=VECTOR('',#849,1.);
#477=VECTOR('',#854,1.);
#478=VECTOR('',#857,1.);
#479=VECTOR('',#864,1.);
#480=VECTOR('',#867,1.);
#481=VECTOR('',#870,1.);
#482=VECTOR('',#881,1.);
#483=VECTOR('',#882,1.);
#484=VECTOR('',#885,1.);
#485=VECTOR('',#886,1.);
#486=VECTOR('',#887,1.);
#487=VECTOR('',#890,1.);
#488=VECTOR('',#891,1.);
#489=VECTOR('',#904,1.);
#490=VECTOR('',#905,1.);
#491=VECTOR('',#906,1.);
#492=VECTOR('',#909,1.);
#493=VECTOR('',#910,1.);
#494=VECTOR('',#913,1.);
#495=VECTOR('',#914,1.);
#496=VECTOR('',#917,1.);
#497=VECTOR('',#918,1.);
#498=VECTOR('',#921,1.);
#499=VECTOR('',#922,1.);
#500=VECTOR('',#925,1.);
#501=VECTOR('',#926,1.);
#502=VECTOR('',#929,1.);
#503=VECTOR('',#934,1.);
#504=VECTOR('',#935,1.);
#505=VECTOR('',#936,1.);
#506=VECTOR('',#939,1.);
#507=VECTOR('',#940,1.);
#508=VECTOR('',#943,1.);
#509=VECTOR('',#944,1.);
#510=VECTOR('',#947,1.);
#511=EDGE_LOOP('',(#31,#32,#33,#34));
#512=EDGE_LOOP('',(#35,#36,#37,#38));
#513=EDGE_LOOP('',(#39,#40,#41,#42));
#514=EDGE_LOOP('',(#43,#44,#45,#46));
#515=EDGE_LOOP('',(#47,#48,#49,#50));
#516=EDGE_LOOP('',(#51,#52,#53,#54));
#517=EDGE_LOOP('',(#55,#56,#57,#58));
#518=EDGE_LOOP('',(#59,#60,#61,#62,#63,#64,#65));
#519=EDGE_LOOP('',(#66,#67,#68,#69,#70,#71,#72));
#520=EDGE_LOOP('',(#73,#74,#75,#76));
#521=EDGE_LOOP('',(#77,#78,#79,#80));
#522=EDGE_LOOP('',(#81,#82,#83,#84));
#523=EDGE_LOOP('',(#85,#86,#87,#88));
#524=EDGE_LOOP('',(#89,#90,#91,#92));
#525=EDGE_LOOP('',(#93,#94,#95,#96));
#526=EDGE_LOOP('',(#97));
#527=EDGE_LOOP('',(#98,#99,#100,#101,#102,#103,#104));
#528=EDGE_LOOP('',(#105,#106,#107,#108));
#529=EDGE_LOOP('',(#109));
#530=EDGE_LOOP('',(#110,#111,#112,#113));
#531=EDGE_LOOP('',(#114));
#532=EDGE_LOOP('',(#115,#116,#117,#118,#119,#120));
#533=EDGE_LOOP('',(#121));
#534=EDGE_LOOP('',(#122));
#535=EDGE_LOOP('',(#123));
#536=EDGE_LOOP('',(#124));
#537=EDGE_LOOP('',(#125));
#538=EDGE_LOOP('',(#126,#127,#128,#129));
#539=EDGE_LOOP('',(#130,#131,#132,#133));
#540=EDGE_LOOP('',(#134,#135,#136,#137));
#541=EDGE_LOOP('',(#138,#139,#140,#141,#142,#143));
#542=EDGE_LOOP('',(#144,#145,#146,#147));
#543=EDGE_LOOP('',(#148,#149,#150,#151));
#544=EDGE_LOOP('',(#152,#153,#154,#155));
#545=EDGE_LOOP('',(#156,#157,#158,#159));
#546=EDGE_LOOP('',(#160,#161,#162,#163));
#547=EDGE_LOOP('',(#164,#165,#166,#167));
#548=EDGE_LOOP('',(#168,#169,#170,#171));
#549=EDGE_LOOP('',(#172,#173,#174,#175));
#550=EDGE_LOOP('',(#176,#177,#178,#179));
#551=EDGE_LOOP('',(#180,#181,#182,#183,#184,#185,#186));
#552=EDGE_LOOP('',(#187,#188,#189,#190));
#553=EDGE_LOOP('',(#191,#192,#193,#194));
#554=EDGE_LOOP('',(#195,#196,#197,#198));
#555=EDGE_LOOP('',(#199,#200,#201,#202));
#556=EDGE_LOOP('',(#203,#204,#205,#206));
#557=FACE_BOUND('',#511,.T.);
#558=FACE_BOUND('',#512,.T.);
#559=FACE_BOUND('',#513,.T.);
#560=FACE_BOUND('',#514,.T.);
#561=FACE_BOUND('',#515,.T.);
#562=FACE_BOUND('',#516,.T.);
#563=FACE_BOUND('',#517,.T.);
#564=FACE_BOUND('',#518,.T.);
#565=FACE_BOUND('',#519,.T.);
#566=FACE_BOUND('',#520,.T.);
#567=FACE_BOUND('',#521,.T.);
#568=FACE_BOUND('',#522,.T.);
#569=FACE_BOUND('',#523,.T.);
#570=FACE_BOUND('',#524,.T.);
#571=FACE_BOUND('',#525,.T.);
#572=FACE_BOUND('',#526,.T.);
#573=FACE_BOUND('',#527,.T.);
#574=FACE_BOUND('',#528,.T.);
#575=FACE_BOUND('',#529,.T.);
#576=FACE_BOUND('',#530,.T.);
#577=FACE_BOUND('',#531,.T.);
#578=FACE_BOUND('',#532,.T.);
#579=FACE_BOUND('',#533,.T.);
#580=FACE_BOUND('',#534,.T.);
#581=FACE_BOUND('',#535,.T.);
#582=FACE_BOUND('',#536,.T.);
#583=FACE_BOUND('',#537,.T.);
#584=FACE_BOUND('',#538,.T.);
#585=FACE_BOUND('',#539,.T.);
#586=FACE_BOUND('',#540,.T.);
#587=FACE_BOUND('',#541,.T.);
#588=FACE_BOUND('',#542,.T.);
#589=FACE_BOUND('',#543,.T.);
#590=FACE_BOUND('',#544,.T.);
#591=FACE_BOUND('',#545,.T.);
#592=FACE_BOUND('',#546,.T.);
#593=FACE_BOUND('',#547,.T.);
#594=FACE_BOUND('',#548,.T.);
#595=FACE_BOUND('',#549,.T.);
#596=FACE_BOUND('',#550,.T.);
#597=FACE_BOUND('',#551,.T.);
#598=FACE_BOUND('',#552,.T.);
#599=FACE_BOUND('',#553,.T.);
#600=FACE_BOUND('',#554,.T.);
#601=FACE_BOUND('',#555,.T.);
#602=FACE_BOUND('',#556,.T.);
#603=PLANE('',#714);
#604=PLANE('',#715);
#605=PLANE('',#716);
#606=PLANE('',#717);
#607=PLANE('',#718);
#608=PLANE('',#719);
#609=PLANE('',#720);
#610=PLANE('',#721);
#611=PLANE('',#722);
#612=PLANE('',#724);
#613=PLANE('',#725);
#614=PLANE('',#726);
#615=PLANE('',#727);
#616=PLANE('',#728);
#617=PLANE('',#729);
#618=PLANE('',#731);
#619=PLANE('',#737);
#620=PLANE('',#743);
#621=PLANE('',#745);
#622=PLANE('',#746);
#623=PLANE('',#747);
#624=PLANE('',#748);
#625=PLANE('',#753);
#626=PLANE('',#754);
#627=PLANE('',#755);
#628=PLANE('',#756);
#629=PLANE('',#757);
#630=PLANE('',#758);
#631=PLANE('',#759);
#632=PLANE('',#760);
#633=PLANE('',#761);
#634=PLANE('',#762);
#635=PLANE('',#763);
#636=PLANE('',#764);
#637=PLANE('',#765);
#638=ADVANCED_FACE('',(#557),#603,.F.);
#639=ADVANCED_FACE('',(#558),#604,.F.);
#640=ADVANCED_FACE('',(#559),#605,.F.);
#641=ADVANCED_FACE('',(#560),#606,.F.);
#642=ADVANCED_FACE('',(#561),#607,.F.);
#643=ADVANCED_FACE('',(#562),#608,.F.);
#644=ADVANCED_FACE('',(#563),#609,.F.);
#645=ADVANCED_FACE('',(#564),#610,.F.);
#646=ADVANCED_FACE('',(#565),#611,.T.);
#647=ADVANCED_FACE('',(#566),#612,.F.);
#648=ADVANCED_FACE('',(#567),#613,.F.);
#649=ADVANCED_FACE('',(#568),#614,.F.);
#650=ADVANCED_FACE('',(#569),#615,.F.);
#651=ADVANCED_FACE('',(#570),#616,.F.);
#652=ADVANCED_FACE('',(#571),#617,.T.);
#653=ADVANCED_FACE('',(#572,#573,#574),#618,.T.);
#654=ADVANCED_FACE('',(#575,#576),#11,.T.);
#655=ADVANCED_FACE('',(#577,#578),#619,.F.);
#656=ADVANCED_FACE('',(#579,#580),#12,.F.);
#657=ADVANCED_FACE('',(#581),#620,.T.);
#658=ADVANCED_FACE('',(#582,#583),#10,.T.);
#659=ADVANCED_FACE('',(#584),#621,.F.);
#660=ADVANCED_FACE('',(#585),#622,.F.);
#661=ADVANCED_FACE('',(#586),#623,.T.);
#662=ADVANCED_FACE('',(#587),#624,.T.);
#663=ADVANCED_FACE('',(#588),#13,.T.);
#664=ADVANCED_FACE('',(#589),#14,.T.);
#665=ADVANCED_FACE('',(#590),#625,.T.);
#666=ADVANCED_FACE('',(#591),#626,.T.);
#667=ADVANCED_FACE('',(#592),#627,.T.);
#668=ADVANCED_FACE('',(#593),#628,.T.);
#669=ADVANCED_FACE('',(#594),#629,.T.);
#670=ADVANCED_FACE('',(#595),#630,.T.);
#671=ADVANCED_FACE('',(#596),#631,.T.);
#672=ADVANCED_FACE('',(#597),#632,.T.);
#673=ADVANCED_FACE('',(#598),#633,.T.);
#674=ADVANCED_FACE('',(#599),#634,.T.);
#675=ADVANCED_FACE('',(#600),#635,.T.);
#676=ADVANCED_FACE('',(#601),#636,.T.);
#677=ADVANCED_FACE('',(#602),#637,.T.);
#678=CLOSED_SHELL('',(#638,#639,#640,#641,#642,#643,#644,#645,#646));
#679=CLOSED_SHELL('',(#647,#648,#649,#650,#651,#652));
#680=CLOSED_SHELL('',(#653,#654,#655,#656,#657,#658,#659,#660,#661,#662,
#663,#664,#665,#666,#667,#668,#669,#670,#671,#672,#673,#674,#675,#676,#677));
#681=STYLED_ITEM('',(#684),#704);
#682=STYLED_ITEM('',(#685),#705);
#683=STYLED_ITEM('',(#686),#706);
#684=PRESENTATION_STYLE_ASSIGNMENT((#687));
#685=PRESENTATION_STYLE_ASSIGNMENT((#688));
#686=PRESENTATION_STYLE_ASSIGNMENT((#689));
#687=SURFACE_STYLE_USAGE(.BOTH.,#690);
#688=SURFACE_STYLE_USAGE(.BOTH.,#691);
#689=SURFACE_STYLE_USAGE(.BOTH.,#692);
#690=SURFACE_SIDE_STYLE('',(#693));
#691=SURFACE_SIDE_STYLE('',(#694));
#692=SURFACE_SIDE_STYLE('',(#695));
#693=SURFACE_STYLE_FILL_AREA(#696);
#694=SURFACE_STYLE_FILL_AREA(#697);
#695=SURFACE_STYLE_FILL_AREA(#698);
#696=FILL_AREA_STYLE('',(#699));
#697=FILL_AREA_STYLE('',(#700));
#698=FILL_AREA_STYLE('',(#701));
#699=FILL_AREA_STYLE_COLOUR('',#702);
#700=FILL_AREA_STYLE_COLOUR('',#702);
#701=FILL_AREA_STYLE_COLOUR('',#703);
#702=COLOUR_RGB('',0.231372549019608,0.380392156862745,0.705882352941177);
#703=COLOUR_RGB('',0.615686274509804,0.811764705882353,0.929411764705882);
#704=MANIFOLD_SOLID_BREP('Part 2',#678);
#705=MANIFOLD_SOLID_BREP('Part 3',#679);
#706=MANIFOLD_SOLID_BREP('Part 1',#680);
#707=SHAPE_DEFINITION_REPRESENTATION(#1159,#710);
#708=SHAPE_DEFINITION_REPRESENTATION(#1160,#711);
#709=SHAPE_DEFINITION_REPRESENTATION(#1161,#712);
#710=SHAPE_REPRESENTATION('Part 2',(#713),#1144);
#711=SHAPE_REPRESENTATION('Part 3',(#723),#1145);
#712=SHAPE_REPRESENTATION('Part 1',(#730),#1146);
#713=AXIS2_PLACEMENT_3D('',#950,#766,#767);
#714=AXIS2_PLACEMENT_3D('',#951,#768,#769);
#715=AXIS2_PLACEMENT_3D('',#960,#774,#775);
#716=AXIS2_PLACEMENT_3D('',#966,#779,#780);
#717=AXIS2_PLACEMENT_3D('',#972,#784,#785);
#718=AXIS2_PLACEMENT_3D('',#978,#789,#790);
#719=AXIS2_PLACEMENT_3D('',#984,#794,#795);
#720=AXIS2_PLACEMENT_3D('',#990,#799,#800);
#721=AXIS2_PLACEMENT_3D('',#993,#803,#804);
#722=AXIS2_PLACEMENT_3D('',#994,#805,#806);
#723=AXIS2_PLACEMENT_3D('',#995,#807,#808);
#724=AXIS2_PLACEMENT_3D('',#996,#809,#810);
#725=AXIS2_PLACEMENT_3D('',#1005,#815,#816);
#726=AXIS2_PLACEMENT_3D('',#1011,#820,#821);
#727=AXIS2_PLACEMENT_3D('',#1017,#825,#826);
#728=AXIS2_PLACEMENT_3D('',#1020,#829,#830);
#729=AXIS2_PLACEMENT_3D('',#1021,#831,#832);
#730=AXIS2_PLACEMENT_3D('',#1022,#833,#834);
#731=AXIS2_PLACEMENT_3D('',#1023,#835,#836);
#732=AXIS2_PLACEMENT_3D('',#1024,#837,#838);
#733=AXIS2_PLACEMENT_3D('',#1048,#850,#851);
#734=AXIS2_PLACEMENT_3D('',#1049,#852,#853);
#735=AXIS2_PLACEMENT_3D('',#1054,#855,#856);
#736=AXIS2_PLACEMENT_3D('',#1058,#858,#859);
#737=AXIS2_PLACEMENT_3D('',#1059,#860,#861);
#738=AXIS2_PLACEMENT_3D('',#1060,#862,#863);
#739=AXIS2_PLACEMENT_3D('',#1064,#865,#866);
#740=AXIS2_PLACEMENT_3D('',#1068,#868,#869);
#741=AXIS2_PLACEMENT_3D('',#1071,#871,#872);
#742=AXIS2_PLACEMENT_3D('',#1072,#873,#874);
#743=AXIS2_PLACEMENT_3D('',#1074,#875,#876);
#744=AXIS2_PLACEMENT_3D('',#1075,#877,#878);
#745=AXIS2_PLACEMENT_3D('',#1076,#879,#880);
#746=AXIS2_PLACEMENT_3D('',#1080,#883,#884);
#747=AXIS2_PLACEMENT_3D('',#1086,#888,#889);
#748=AXIS2_PLACEMENT_3D('',#1090,#892,#893);
#749=AXIS2_PLACEMENT_3D('',#1091,#894,#895);
#750=AXIS2_PLACEMENT_3D('',#1092,#896,#897);
#751=AXIS2_PLACEMENT_3D('',#1093,#898,#899);
#752=AXIS2_PLACEMENT_3D('',#1094,#900,#901);
#753=AXIS2_PLACEMENT_3D('',#1095,#902,#903);
#754=AXIS2_PLACEMENT_3D('',#1101,#907,#908);
#755=AXIS2_PLACEMENT_3D('',#1105,#911,#912);
#756=AXIS2_PLACEMENT_3D('',#1109,#915,#916);
#757=AXIS2_PLACEMENT_3D('',#1113,#919,#920);
#758=AXIS2_PLACEMENT_3D('',#1117,#923,#924);
#759=AXIS2_PLACEMENT_3D('',#1121,#927,#928);
#760=AXIS2_PLACEMENT_3D('',#1123,#930,#931);
#761=AXIS2_PLACEMENT_3D('',#1124,#932,#933);
#762=AXIS2_PLACEMENT_3D('',#1130,#937,#938);
#763=AXIS2_PLACEMENT_3D('',#1134,#941,#942);
#764=AXIS2_PLACEMENT_3D('',#1138,#945,#946);
#765=AXIS2_PLACEMENT_3D('',#1140,#948,#949);
#766=DIRECTION('',(0.,0.,1.));
#767=DIRECTION('',(1.,0.,0.));
#768=DIRECTION('',(0.,1.,0.));
#769=DIRECTION('',(0.,0.,1.));
#770=DIRECTION('',(-1.,0.,0.));
#771=DIRECTION('',(0.,0.,1.));
#772=DIRECTION('',(-1.,0.,0.));
#773=DIRECTION('',(0.,0.,1.));
#774=DIRECTION('',(-0.944496796706159,-0.328520624941273,0.));
#775=DIRECTION('',(0.328520624941273,-0.944496796706159,0.));
#776=DIRECTION('',(0.328520624941273,-0.944496796706159,0.));
#777=DIRECTION('',(0.328520624941273,-0.944496796706159,0.));
#778=DIRECTION('',(0.,0.,1.));
#779=DIRECTION('',(0.,-1.,0.));
#780=DIRECTION('',(0.,0.,-1.));
#781=DIRECTION('',(1.,0.,0.));
#782=DIRECTION('',(1.,0.,0.));
#783=DIRECTION('',(0.,0.,1.));
#784=DIRECTION('',(0.943730346928175,-0.330715938967004,0.));
#785=DIRECTION('',(0.330715938967004,0.943730346928175,0.));
#786=DIRECTION('',(0.330715938967004,0.943730346928175,0.));
#787=DIRECTION('',(0.330715938967004,0.943730346928175,0.));
#788=DIRECTION('',(0.,0.,1.));
#789=DIRECTION('',(0.,1.,0.));
#790=DIRECTION('',(0.,0.,1.));
#791=DIRECTION('',(-1.,0.,0.));
#792=DIRECTION('',(-1.,0.,0.));
#793=DIRECTION('',(0.,0.,1.));
#794=DIRECTION('',(-0.943986258892119,0.329984761804028,0.));
#795=DIRECTION('',(-0.329984761804028,-0.943986258892119,0.));
#796=DIRECTION('',(-0.329984761804028,-0.943986258892119,0.));
#797=DIRECTION('',(-0.329984761804028,-0.943986258892119,0.));
#798=DIRECTION('',(0.,0.,1.));
#799=DIRECTION('',(0.945005611242038,0.327054115890723,0.));
#800=DIRECTION('',(-0.327054115890723,0.945005611242038,0.));
#801=DIRECTION('',(-0.327054115890723,0.945005611242038,0.));
#802=DIRECTION('',(-0.327054115890723,0.945005611242038,0.));
#803=DIRECTION('',(0.,0.,1.));
#804=DIRECTION('',(1.,0.,0.));
#805=DIRECTION('',(0.,0.,1.));
#806=DIRECTION('',(1.,0.,0.));
#807=DIRECTION('',(0.,0.,1.));
#808=DIRECTION('',(1.,0.,0.));
#809=DIRECTION('',(-0.941783930532432,-0.336218720762072,0.));
#810=DIRECTION('',(0.336218720762072,-0.941783930532432,0.));
#811=DIRECTION('',(0.336218720762072,-0.941783930532432,0.));
#812=DIRECTION('',(0.,0.,1.));
#813=DIRECTION('',(0.336218720762072,-0.941783930532432,0.));
#814=DIRECTION('',(0.,0.,1.));
#815=DIRECTION('',(0.,-1.,0.));
#816=DIRECTION('',(0.,0.,-1.));
#817=DIRECTION('',(1.,0.,0.));
#818=DIRECTION('',(1.,0.,0.));
#819=DIRECTION('',(0.,0.,1.));
#820=DIRECTION('',(0.945273870729851,-0.326277963269672,0.));
#821=DIRECTION('',(0.326277963269672,0.945273870729851,0.));
#822=DIRECTION('',(0.326277963269672,0.945273870729851,0.));
#823=DIRECTION('',(0.326277963269672,0.945273870729851,0.));
#824=DIRECTION('',(0.,0.,1.));
#825=DIRECTION('',(0.,1.,0.));
#826=DIRECTION('',(0.,0.,1.));
#827=DIRECTION('',(-1.,0.,0.));
#828=DIRECTION('',(-1.,0.,0.));
#829=DIRECTION('',(0.,0.,1.));
#830=DIRECTION('',(1.,0.,0.));
#831=DIRECTION('',(0.,0.,1.));
#832=DIRECTION('',(1.,0.,0.));
#833=DIRECTION('',(0.,0.,1.));
#834=DIRECTION('',(1.,0.,0.));
#835=DIRECTION('',(0.,0.,1.));
#836=DIRECTION('',(1.,0.,0.));
#837=DIRECTION('',(0.,0.,1.));
#838=DIRECTION('',(1.,0.,0.));
#839=DIRECTION('',(0.328520624941273,-0.944496796706159,0.));
#840=DIRECTION('',(-1.,0.,0.));
#841=DIRECTION('',(-0.327054115890723,0.945005611242038,0.));
#842=DIRECTION('',(-0.329984761804028,-0.943986258892119,0.));
#843=DIRECTION('',(-1.,0.,0.));
#844=DIRECTION('',(0.330715938967004,0.943730346928175,0.));
#845=DIRECTION('',(1.,0.,0.));
#846=DIRECTION('',(1.,0.,0.));
#847=DIRECTION('',(0.336218720762072,-0.941783930532432,0.));
#848=DIRECTION('',(-1.,0.,0.));
#849=DIRECTION('',(0.326277963269672,0.945273870729851,0.));
#850=DIRECTION('',(0.,0.,-1.));
#851=DIRECTION('',(-1.,0.,0.));
#852=DIRECTION('',(0.,0.,1.));
#853=DIRECTION('',(1.,0.,0.));
#854=DIRECTION('',(0.,0.,-1.));
#855=DIRECTION('',(0.,0.,1.));
#856=DIRECTION('',(1.,0.,0.));
#857=DIRECTION('',(0.,0.,-1.));
#858=DIRECTION('',(0.,0.,1.));
#859=DIRECTION('',(1.,0.,0.));
#860=DIRECTION('',(0.,0.,1.));
#861=DIRECTION('',(1.,0.,0.));
#862=DIRECTION('',(0.,0.,-1.));
#863=DIRECTION('',(-1.,0.,0.));
#864=DIRECTION('',(0.,-1.,0.));
#865=DIRECTION('',(0.,0.,1.));
#866=DIRECTION('',(1.,0.,0.));
#867=DIRECTION('',(1.,0.,0.));
#868=DIRECTION('',(0.,0.,1.));
#869=DIRECTION('',(1.,0.,0.));
#870=DIRECTION('',(0.,-1.,0.));
#871=DIRECTION('',(0.,0.,-1.));
#872=DIRECTION('',(-1.,0.,0.));
#873=DIRECTION('',(0.,0.,-1.));
#874=DIRECTION('',(-1.,0.,0.));
#875=DIRECTION('',(0.,0.,-1.));
#876=DIRECTION('',(1.,0.,0.));
#877=DIRECTION('',(0.,0.,1.));
#878=DIRECTION('',(1.,0.,0.));
#879=DIRECTION('',(1.,0.,0.));
#880=DIRECTION('',(0.,0.,-1.));
#881=DIRECTION('',(0.,0.,-1.));
#882=DIRECTION('',(0.,-1.,0.));
#883=DIRECTION('',(0.,1.,0.));
#884=DIRECTION('',(0.,0.,1.));
#885=DIRECTION('',(0.,0.,-1.));
#886=DIRECTION('',(1.,0.,0.));
#887=DIRECTION('',(0.,0.,-1.));
#888=DIRECTION('',(1.,0.,0.));
#889=DIRECTION('',(0.,0.,-1.));
#890=DIRECTION('',(0.,-1.,0.));
#891=DIRECTION('',(0.,0.,-1.));
#892=DIRECTION('',(0.,0.,1.));
#893=DIRECTION('',(1.,0.,0.));
#894=DIRECTION('',(0.,0.,1.));
#895=DIRECTION('',(1.,0.,0.));
#896=DIRECTION('',(0.,0.,1.));
#897=DIRECTION('',(1.,0.,0.));
#898=DIRECTION('',(0.,0.,1.));
#899=DIRECTION('',(1.,0.,0.));
#900=DIRECTION('',(0.,0.,-1.));
#901=DIRECTION('',(-1.,0.,0.));
#902=DIRECTION('',(0.,1.,0.));
#903=DIRECTION('',(0.,0.,1.));
#904=DIRECTION('',(0.,0.,1.));
#905=DIRECTION('',(-1.,0.,0.));
#906=DIRECTION('',(0.,0.,1.));
#907=DIRECTION('',(-0.944496796706159,-0.328520624941273,0.));
#908=DIRECTION('',(0.328520624941273,-0.944496796706159,0.));
#909=DIRECTION('',(0.,0.,1.));
#910=DIRECTION('',(0.328520624941273,-0.944496796706159,0.));
#911=DIRECTION('',(0.,-1.,0.));
#912=DIRECTION('',(0.,0.,-1.));
#913=DIRECTION('',(0.,0.,1.));
#914=DIRECTION('',(1.,0.,0.));
#915=DIRECTION('',(0.943730346928175,-0.330715938967004,0.));
#916=DIRECTION('',(0.330715938967004,0.943730346928175,0.));
#917=DIRECTION('',(0.,0.,1.));
#918=DIRECTION('',(0.330715938967004,0.943730346928175,0.));
#919=DIRECTION('',(0.,1.,0.));
#920=DIRECTION('',(0.,0.,1.));
#921=DIRECTION('',(0.,0.,1.));
#922=DIRECTION('',(-1.,0.,0.));
#923=DIRECTION('',(-0.943986258892119,0.329984761804028,0.));
#924=DIRECTION('',(-0.329984761804028,-0.943986258892119,0.));
#925=DIRECTION('',(0.,0.,1.));
#926=DIRECTION('',(-0.329984761804028,-0.943986258892119,0.));
#927=DIRECTION('',(0.945005611242038,0.327054115890723,0.));
#928=DIRECTION('',(-0.327054115890723,0.945005611242038,0.));
#929=DIRECTION('',(-0.327054115890723,0.945005611242038,0.));
#930=DIRECTION('',(0.,0.,1.));
#931=DIRECTION('',(1.,0.,0.));
#932=DIRECTION('',(-0.941783930532432,-0.336218720762072,0.));
#933=DIRECTION('',(0.336218720762072,-0.941783930532432,0.));
#934=DIRECTION('',(0.,0.,1.));
#935=DIRECTION('',(0.336218720762072,-0.941783930532432,0.));
#936=DIRECTION('',(0.,0.,1.));
#937=DIRECTION('',(0.,-1.,0.));
#938=DIRECTION('',(0.,0.,-1.));
#939=DIRECTION('',(0.,0.,1.));
#940=DIRECTION('',(1.,0.,0.));
#941=DIRECTION('',(0.945273870729851,-0.326277963269672,0.));
#942=DIRECTION('',(0.326277963269672,0.945273870729851,0.));
#943=DIRECTION('',(0.,0.,1.));
#944=DIRECTION('',(0.326277963269672,0.945273870729851,0.));
#945=DIRECTION('',(0.,1.,0.));
#946=DIRECTION('',(0.,0.,1.));
#947=DIRECTION('',(-1.,0.,0.));
#948=DIRECTION('',(0.,0.,1.));
#949=DIRECTION('',(1.,0.,0.));
#950=CARTESIAN_POINT('',(0.,0.,0.));
#951=CARTESIAN_POINT('',(0.00131728756802009,-0.00170768103809125,0.004));
#952=CARTESIAN_POINT('',(0.00131728756802009,-0.00170768103809125,0.005));
#953=CARTESIAN_POINT('',(0.00164169108413562,-0.00170768103809125,0.005));
#954=CARTESIAN_POINT('',(0.000992884051904561,-0.00170768103809125,0.005));
#955=CARTESIAN_POINT('',(0.000992884051904561,-0.00170768103809125,0.004));
#956=CARTESIAN_POINT('',(0.000992884051904561,-0.00170768103809125,0.004));
#957=CARTESIAN_POINT('',(0.00131728756802009,-0.00170768103809125,0.004));
#958=CARTESIAN_POINT('',(0.00164169108413562,-0.00170768103809125,0.004));
#959=CARTESIAN_POINT('',(0.00164169108413562,-0.00170768103809125,0.004));
#960=CARTESIAN_POINT('',(0.000971954792800334,0.000217810799497697,0.004));
#961=CARTESIAN_POINT('',(0.000971954792800334,0.000217810799497697,0.005));
#962=CARTESIAN_POINT('',(0.000302218501465047,0.00214330263708665,0.005));
#963=CARTESIAN_POINT('',(0.000971954792800334,0.000217810799497697,0.004));
#964=CARTESIAN_POINT('',(0.000302218501465047,0.00214330263708665,0.004));
#965=CARTESIAN_POINT('',(0.000302218501465047,0.00214330263708665,0.004));
#966=CARTESIAN_POINT('',(-9.20887400586185E-6,0.00214330263708665,0.004));
#967=CARTESIAN_POINT('',(-9.20887400586185E-6,0.00214330263708665,0.005));
#968=CARTESIAN_POINT('',(-0.00032063624947677,0.00214330263708665,0.005));
#969=CARTESIAN_POINT('',(-9.20887400586185E-6,0.00214330263708665,0.004));
#970=CARTESIAN_POINT('',(-0.00032063624947677,0.00214330263708665,0.004));
#971=CARTESIAN_POINT('',(-0.00032063624947677,0.00214330263708665,0.004));
#972=CARTESIAN_POINT('',(-0.000995395562997072,0.000217810799497697,0.004));
#973=CARTESIAN_POINT('',(-0.000995395562997072,0.000217810799497697,0.005));
#974=CARTESIAN_POINT('',(-0.00167015487651738,-0.00170768103809125,0.005));
#975=CARTESIAN_POINT('',(-0.000995395562997072,0.000217810799497697,0.004));
#976=CARTESIAN_POINT('',(-0.00167015487651738,-0.00170768103809125,0.004));
#977=CARTESIAN_POINT('',(-0.00167015487651738,-0.00170768103809125,0.004));
#978=CARTESIAN_POINT('',(-0.00134323984930934,-0.00170768103809125,0.004));
#979=CARTESIAN_POINT('',(-0.00134323984930934,-0.00170768103809125,0.005));
#980=CARTESIAN_POINT('',(-0.0010163248221013,-0.00170768103809125,0.005));
#981=CARTESIAN_POINT('',(-0.00134323984930934,-0.00170768103809125,0.004));
#982=CARTESIAN_POINT('',(-0.0010163248221013,-0.00170768103809125,0.004));
#983=CARTESIAN_POINT('',(-0.0010163248221013,-0.00170768103809125,0.004));
#984=CARTESIAN_POINT('',(-0.000511511092507327,-0.00026356215989954,0.004));
#985=CARTESIAN_POINT('',(-0.000511511092507327,-0.00026356215989954,0.005));
#986=CARTESIAN_POINT('',(-6.69736291335427E-6,0.00118055671829217,0.005));
#987=CARTESIAN_POINT('',(-0.000511511092507327,-0.00026356215989954,0.004));
#988=CARTESIAN_POINT('',(-6.69736291335427E-6,0.00118055671829217,0.004));
#989=CARTESIAN_POINT('',(-6.69736291335427E-6,0.00118055671829217,0.004));
#990=CARTESIAN_POINT('',(0.000493093344495603,-0.00026356215989954,0.004));
#991=CARTESIAN_POINT('',(0.000493093344495603,-0.00026356215989954,0.005));
#992=CARTESIAN_POINT('',(0.000493093344495603,-0.00026356215989954,0.004));
#993=CARTESIAN_POINT('',(8.67361737988404E-19,-2.60208521396521E-18,0.004));
#994=CARTESIAN_POINT('',(8.67361737988404E-19,-2.60208521396521E-18,0.005));
#995=CARTESIAN_POINT('',(0.,0.,0.));
#996=CARTESIAN_POINT('',(0.000414817915445792,-0.000695123482628715,0.004));
#997=CARTESIAN_POINT('',(0.000414817915445792,-0.000695123482628715,0.005));
#998=CARTESIAN_POINT('',(0.000339053997488488,-0.000482900795311846,0.005));
#999=CARTESIAN_POINT('',(0.000490581833403096,-0.000907346169945584,0.005));
#1000=CARTESIAN_POINT('',(0.000490581833403096,-0.000907346169945584,0.004));
#1001=CARTESIAN_POINT('',(0.000490581833403096,-0.000907346169945584,0.004));
#1002=CARTESIAN_POINT('',(0.000414817915445792,-0.000695123482628715,0.004));
#1003=CARTESIAN_POINT('',(0.000339053997488488,-0.000482900795311846,0.004));
#1004=CARTESIAN_POINT('',(0.000339053997488488,-0.000482900795311846,0.004));
#1005=CARTESIAN_POINT('',(-1.17203850983691E-5,-0.000482900795311846,0.004));
#1006=CARTESIAN_POINT('',(-1.17203850983691E-5,-0.000482900795311846,0.005));
#1007=CARTESIAN_POINT('',(-0.000362494767685225,-0.000482900795311846,0.005));
#1008=CARTESIAN_POINT('',(-1.17203850983691E-5,-0.000482900795311846,0.004));
#1009=CARTESIAN_POINT('',(-0.000362494767685225,-0.000482900795311846,0.004));
#1010=CARTESIAN_POINT('',(-0.000362494767685225,-0.000482900795311846,0.004));
#1011=CARTESIAN_POINT('',(-0.000435747174550022,-0.000695123482628715,0.004));
#1012=CARTESIAN_POINT('',(-0.000435747174550022,-0.000695123482628715,0.005));
#1013=CARTESIAN_POINT('',(-0.00050899958141482,-0.000907346169945584,0.005));
#1014=CARTESIAN_POINT('',(-0.000435747174550022,-0.000695123482628715,0.004));
#1015=CARTESIAN_POINT('',(-0.00050899958141482,-0.000907346169945584,0.004));
#1016=CARTESIAN_POINT('',(-0.00050899958141482,-0.000907346169945584,0.004));
#1017=CARTESIAN_POINT('',(-9.20887400586174E-6,-0.000907346169945584,0.004));
#1018=CARTESIAN_POINT('',(-9.20887400586174E-6,-0.000907346169945584,0.005));
#1019=CARTESIAN_POINT('',(-9.20887400586174E-6,-0.000907346169945584,0.004));
#1020=CARTESIAN_POINT('',(8.67361737988404E-19,-2.60208521396521E-18,0.004));
#1021=CARTESIAN_POINT('',(8.67361737988404E-19,-2.60208521396521E-18,0.005));
#1022=CARTESIAN_POINT('',(0.,0.,0.));
#1023=CARTESIAN_POINT('',(0.,-0.00075,0.005));
#1024=CARTESIAN_POINT('',(8.02635995939691E-19,-3.03576608295941E-18,0.005));
#1025=CARTESIAN_POINT('',(0.002925,-3.03576608295941E-18,0.005));
#1026=CARTESIAN_POINT('',(0.000971954792800334,0.000217810799497697,0.005));
#1027=CARTESIAN_POINT('',(0.000302218501465047,0.00214330263708665,0.005));
#1028=CARTESIAN_POINT('',(0.00164169108413562,-0.00170768103809125,0.005));
#1029=CARTESIAN_POINT('',(0.00131728756802009,-0.00170768103809125,0.005));
#1030=CARTESIAN_POINT('',(0.000992884051904561,-0.00170768103809125,0.005));
#1031=CARTESIAN_POINT('',(0.000493093344495603,-0.00026356215989954,0.005));
#1032=CARTESIAN_POINT('',(-6.69736291335525E-6,0.00118055671829217,0.005));
#1033=CARTESIAN_POINT('',(-0.000511511092507327,-0.00026356215989954,0.005));
#1034=CARTESIAN_POINT('',(-0.0010163248221013,-0.00170768103809125,0.005));
#1035=CARTESIAN_POINT('',(-0.00134323984930934,-0.00170768103809125,0.005));
#1036=CARTESIAN_POINT('',(-0.00167015487651738,-0.00170768103809125,0.005));
#1037=CARTESIAN_POINT('',(-0.000995395562997072,0.000217810799497697,0.005));
#1038=CARTESIAN_POINT('',(-0.00032063624947677,0.00214330263708665,0.005));
#1039=CARTESIAN_POINT('',(-9.20887400586185E-6,0.00214330263708665,0.005));
#1040=CARTESIAN_POINT('',(-1.17203850983691E-5,-0.000482900795311846,0.005));
#1041=CARTESIAN_POINT('',(-0.000362494767685225,-0.000482900795311846,0.005));
#1042=CARTESIAN_POINT('',(0.000339053997488488,-0.000482900795311846,0.005));
#1043=CARTESIAN_POINT('',(0.000414817915445792,-0.000695123482628715,0.005));
#1044=CARTESIAN_POINT('',(0.000490581833403096,-0.000907346169945584,0.005));
#1045=CARTESIAN_POINT('',(-9.20887400586174E-6,-0.000907346169945584,0.005));
#1046=CARTESIAN_POINT('',(-0.00050899958141482,-0.000907346169945584,0.005));
#1047=CARTESIAN_POINT('',(-0.000435747174550022,-0.000695123482628715,0.005));
#1048=CARTESIAN_POINT('',(8.02635995939691E-19,-3.03576608295941E-18,0.005));
#1049=CARTESIAN_POINT('',(8.02635995939691E-19,-3.03576608295941E-18,0.00425));
#1050=CARTESIAN_POINT('',(0.003675,-3.03576608295941E-18,0.00425));
#1051=CARTESIAN_POINT('',(-0.002,-0.00308311936194497,0.002));
#1052=CARTESIAN_POINT('',(-0.002,-0.00308311936194497,0.002));
#1053=CARTESIAN_POINT('',(-0.002,-0.00308311936194497,0.));
#1054=CARTESIAN_POINT('',(-4.33680868994202E-19,1.3010426069826E-18,0.002));
#1055=CARTESIAN_POINT('',(0.002,-0.00308311936194498,0.002));
#1056=CARTESIAN_POINT('',(0.002,-0.00308311936194498,0.002));
#1057=CARTESIAN_POINT('',(0.002,-0.00308311936194498,0.));
#1058=CARTESIAN_POINT('',(8.02635995939691E-19,-3.03576608295941E-18,0.));
#1059=CARTESIAN_POINT('',(0.,-0.00075,0.));
#1060=CARTESIAN_POINT('',(0.,-1.04094977927525E-19,0.));
#1061=CARTESIAN_POINT('',(-0.0017,-1.04094977927525E-19,0.));
#1062=CARTESIAN_POINT('',(0.002,-0.00412905968097249,0.));
#1063=CARTESIAN_POINT('',(0.002,-0.004425,0.));
#1064=CARTESIAN_POINT('',(0.00125,-0.004425,0.));
#1065=CARTESIAN_POINT('',(0.00125,-0.005175,0.));
#1066=CARTESIAN_POINT('',(4.33680868994202E-19,-0.005175,0.));
#1067=CARTESIAN_POINT('',(-0.00125,-0.005175,0.));
#1068=CARTESIAN_POINT('',(-0.00125,-0.004425,0.));
#1069=CARTESIAN_POINT('',(-0.002,-0.004425,0.));
#1070=CARTESIAN_POINT('',(-0.002,-0.00412905968097249,0.));
#1071=CARTESIAN_POINT('',(0.,-1.04094977927525E-19,0.001));
#1072=CARTESIAN_POINT('',(0.,-1.04094977927525E-19,0.001));
#1073=CARTESIAN_POINT('',(-0.0017,-1.04094977927525E-19,0.001));
#1074=CARTESIAN_POINT('',(8.67361737988404E-19,-2.60208521396521E-18,0.001));
#1075=CARTESIAN_POINT('',(8.02635995939691E-19,-3.03576608295941E-18,0.00425));
#1076=CARTESIAN_POINT('',(-0.002,-0.00412905968097249,0.002));
#1077=CARTESIAN_POINT('',(-0.002,-0.004425,0.002));
#1078=CARTESIAN_POINT('',(-0.002,-0.004425,0.002));
#1079=CARTESIAN_POINT('',(-0.002,-0.00412905968097249,0.002));
#1080=CARTESIAN_POINT('',(4.33680868994202E-19,-0.005175,0.002));
#1081=CARTESIAN_POINT('',(0.00125,-0.005175,0.002));
#1082=CARTESIAN_POINT('',(0.00125,-0.005175,0.002));
#1083=CARTESIAN_POINT('',(4.33680868994202E-19,-0.005175,0.002));
#1084=CARTESIAN_POINT('',(-0.00125,-0.005175,0.002));
#1085=CARTESIAN_POINT('',(-0.00125,-0.005175,0.002));
#1086=CARTESIAN_POINT('',(0.002,-0.00412905968097249,0.002));
#1087=CARTESIAN_POINT('',(0.002,-0.00412905968097249,0.002));
#1088=CARTESIAN_POINT('',(0.002,-0.004425,0.002));
#1089=CARTESIAN_POINT('',(0.002,-0.004425,0.));
#1090=CARTESIAN_POINT('',(0.,-0.00075,0.002));
#1091=CARTESIAN_POINT('',(0.00125,-0.004425,0.002));
#1092=CARTESIAN_POINT('',(-0.00125,-0.004425,0.002));
#1093=CARTESIAN_POINT('',(0.00125,-0.004425,0.002));
#1094=CARTESIAN_POINT('',(-0.00125,-0.004425,0.002));
#1095=CARTESIAN_POINT('',(0.00131728756802009,-0.00170768103809125,0.004));
#1096=CARTESIAN_POINT('',(0.00164169108413562,-0.00170768103809125,0.004));
#1097=CARTESIAN_POINT('',(0.00164169108413562,-0.00170768103809125,0.004));
#1098=CARTESIAN_POINT('',(0.00131728756802009,-0.00170768103809125,0.004));
#1099=CARTESIAN_POINT('',(0.000992884051904561,-0.00170768103809125,0.004));
#1100=CARTESIAN_POINT('',(0.000992884051904561,-0.00170768103809125,0.004));
#1101=CARTESIAN_POINT('',(0.000971954792800334,0.000217810799497697,0.004));
#1102=CARTESIAN_POINT('',(0.000302218501465047,0.00214330263708665,0.004));
#1103=CARTESIAN_POINT('',(0.000302218501465047,0.00214330263708665,0.004));
#1104=CARTESIAN_POINT('',(0.000971954792800334,0.000217810799497697,0.004));
#1105=CARTESIAN_POINT('',(-9.20887400586185E-6,0.00214330263708665,0.004));
#1106=CARTESIAN_POINT('',(-0.00032063624947677,0.00214330263708665,0.004));
#1107=CARTESIAN_POINT('',(-0.00032063624947677,0.00214330263708665,0.004));
#1108=CARTESIAN_POINT('',(-9.20887400586185E-6,0.00214330263708665,0.004));
#1109=CARTESIAN_POINT('',(-0.000995395562997072,0.000217810799497697,0.004));
#1110=CARTESIAN_POINT('',(-0.00167015487651738,-0.00170768103809125,0.004));
#1111=CARTESIAN_POINT('',(-0.00167015487651738,-0.00170768103809125,0.004));
#1112=CARTESIAN_POINT('',(-0.000995395562997072,0.000217810799497697,0.004));
#1113=CARTESIAN_POINT('',(-0.00134323984930934,-0.00170768103809125,0.004));
#1114=CARTESIAN_POINT('',(-0.0010163248221013,-0.00170768103809125,0.004));
#1115=CARTESIAN_POINT('',(-0.0010163248221013,-0.00170768103809125,0.004));
#1116=CARTESIAN_POINT('',(-0.00134323984930934,-0.00170768103809125,0.004));
#1117=CARTESIAN_POINT('',(-0.000511511092507327,-0.00026356215989954,0.004));
#1118=CARTESIAN_POINT('',(-6.69736291335427E-6,0.00118055671829217,0.004));
#1119=CARTESIAN_POINT('',(-6.69736291335427E-6,0.00118055671829217,0.004));
#1120=CARTESIAN_POINT('',(-0.000511511092507327,-0.00026356215989954,0.004));
#1121=CARTESIAN_POINT('',(0.000493093344495603,-0.00026356215989954,0.004));
#1122=CARTESIAN_POINT('',(0.000493093344495603,-0.00026356215989954,0.004));
#1123=CARTESIAN_POINT('',(8.67361737988404E-19,-2.60208521396521E-18,0.004));
#1124=CARTESIAN_POINT('',(0.000414817915445792,-0.000695123482628715,0.004));
#1125=CARTESIAN_POINT('',(0.000339053997488488,-0.000482900795311846,0.004));
#1126=CARTESIAN_POINT('',(0.000339053997488488,-0.000482900795311846,0.004));
#1127=CARTESIAN_POINT('',(0.000414817915445792,-0.000695123482628715,0.004));
#1128=CARTESIAN_POINT('',(0.000490581833403096,-0.000907346169945584,0.004));
#1129=CARTESIAN_POINT('',(0.000490581833403096,-0.000907346169945584,0.004));
#1130=CARTESIAN_POINT('',(-1.17203850983691E-5,-0.000482900795311846,0.004));
#1131=CARTESIAN_POINT('',(-0.000362494767685225,-0.000482900795311846,0.004));
#1132=CARTESIAN_POINT('',(-0.000362494767685225,-0.000482900795311846,0.004));
#1133=CARTESIAN_POINT('',(-1.17203850983691E-5,-0.000482900795311846,0.004));
#1134=CARTESIAN_POINT('',(-0.000435747174550022,-0.000695123482628715,0.004));
#1135=CARTESIAN_POINT('',(-0.00050899958141482,-0.000907346169945584,0.004));
#1136=CARTESIAN_POINT('',(-0.00050899958141482,-0.000907346169945584,0.004));
#1137=CARTESIAN_POINT('',(-0.000435747174550022,-0.000695123482628715,0.004));
#1138=CARTESIAN_POINT('',(-9.20887400586174E-6,-0.000907346169945584,0.004));
#1139=CARTESIAN_POINT('',(-9.20887400586174E-6,-0.000907346169945584,0.004));
#1140=CARTESIAN_POINT('',(8.67361737988404E-19,-2.60208521396521E-18,0.004));
#1141=MECHANICAL_DESIGN_GEOMETRIC_PRESENTATION_REPRESENTATION('',(#681),
#1144);
#1142=MECHANICAL_DESIGN_GEOMETRIC_PRESENTATION_REPRESENTATION('',(#682),
#1145);
#1143=MECHANICAL_DESIGN_GEOMETRIC_PRESENTATION_REPRESENTATION('',(#683),
#1146);
#1144=(
GEOMETRIC_REPRESENTATION_CONTEXT(3)
GLOBAL_UNCERTAINTY_ASSIGNED_CONTEXT((#1147))
GLOBAL_UNIT_ASSIGNED_CONTEXT((#1156,#1153,#1150))
REPRESENTATION_CONTEXT('Part 2','TOP_LEVEL_ASSEMBLY_PART')
);
#1145=(
GEOMETRIC_REPRESENTATION_CONTEXT(3)
GLOBAL_UNCERTAINTY_ASSIGNED_CONTEXT((#1148))
GLOBAL_UNIT_ASSIGNED_CONTEXT((#1157,#1154,#1151))
REPRESENTATION_CONTEXT('Part 3','TOP_LEVEL_ASSEMBLY_PART')
);
#1146=(
GEOMETRIC_REPRESENTATION_CONTEXT(3)
GLOBAL_UNCERTAINTY_ASSIGNED_CONTEXT((#1149))
GLOBAL_UNIT_ASSIGNED_CONTEXT((#1158,#1155,#1152))
REPRESENTATION_CONTEXT('Part 1','TOP_LEVEL_ASSEMBLY_PART')
);
#1147=UNCERTAINTY_MEASURE_WITH_UNIT(LENGTH_MEASURE(1.E-8),#1156,
'DISTANCE_ACCURACY_VALUE','Maximum Tolerance applied to model');
#1148=UNCERTAINTY_MEASURE_WITH_UNIT(LENGTH_MEASURE(1.E-8),#1157,
'DISTANCE_ACCURACY_VALUE','Maximum Tolerance applied to model');
#1149=UNCERTAINTY_MEASURE_WITH_UNIT(LENGTH_MEASURE(1.E-8),#1158,
'DISTANCE_ACCURACY_VALUE','Maximum Tolerance applied to model');
#1150=(
NAMED_UNIT(*)
SI_UNIT($,.STERADIAN.)
SOLID_ANGLE_UNIT()
);
#1151=(
NAMED_UNIT(*)
SI_UNIT($,.STERADIAN.)
SOLID_ANGLE_UNIT()
);
#1152=(
NAMED_UNIT(*)
SI_UNIT($,.STERADIAN.)
SOLID_ANGLE_UNIT()
);
#1153=(
NAMED_UNIT(*)
PLANE_ANGLE_UNIT()
SI_UNIT($,.RADIAN.)
);
#1154=(
NAMED_UNIT(*)
PLANE_ANGLE_UNIT()
SI_UNIT($,.RADIAN.)
);
#1155=(
NAMED_UNIT(*)
PLANE_ANGLE_UNIT()
SI_UNIT($,.RADIAN.)
);
#1156=(
LENGTH_UNIT()
NAMED_UNIT(*)
SI_UNIT($,.METRE.)
);
#1157=(
LENGTH_UNIT()
NAMED_UNIT(*)
SI_UNIT($,.METRE.)
);
#1158=(
LENGTH_UNIT()
NAMED_UNIT(*)
SI_UNIT($,.METRE.)
);
#1159=PRODUCT_DEFINITION_SHAPE('','',#1162);
#1160=PRODUCT_DEFINITION_SHAPE('','',#1163);
#1161=PRODUCT_DEFINITION_SHAPE('','',#1164);
#1162=PRODUCT_DEFINITION('','',#1168,#1165);
#1163=PRODUCT_DEFINITION('','',#1169,#1166);
#1164=PRODUCT_DEFINITION('','',#1170,#1167);
#1165=PRODUCT_DEFINITION_CONTEXT('',#1186,'design');
#1166=PRODUCT_DEFINITION_CONTEXT('',#1187,'design');
#1167=PRODUCT_DEFINITION_CONTEXT('',#1188,'design');
#1168=PRODUCT_DEFINITION_FORMATION_WITH_SPECIFIED_SOURCE('','',#1174,
 .NOT_KNOWN.);
#1169=PRODUCT_DEFINITION_FORMATION_WITH_SPECIFIED_SOURCE('','',#1175,
 .NOT_KNOWN.);
#1170=PRODUCT_DEFINITION_FORMATION_WITH_SPECIFIED_SOURCE('','',#1176,
 .NOT_KNOWN.);
#1171=PRODUCT_RELATED_PRODUCT_CATEGORY('','',(#1174));
#1172=PRODUCT_RELATED_PRODUCT_CATEGORY('','',(#1175));
#1173=PRODUCT_RELATED_PRODUCT_CATEGORY('','',(#1176));
#1174=PRODUCT('Part 2','Part 2','Part 2',(#1180));
#1175=PRODUCT('Part 3','Part 3','Part 3',(#1181));
#1176=PRODUCT('Part 1','Part 1','Part 1',(#1182));
#1177=PRODUCT_CATEGORY('','');
#1178=PRODUCT_CATEGORY('','');
#1179=PRODUCT_CATEGORY('','');
#1180=PRODUCT_CONTEXT('',#1186,'mechanical');
#1181=PRODUCT_CONTEXT('',#1187,'mechanical');
#1182=PRODUCT_CONTEXT('',#1188,'mechanical');
#1183=APPLICATION_PROTOCOL_DEFINITION('international standard',
'ap242_managed_model_based_3d_engineering',2020,#1186);
#1184=APPLICATION_PROTOCOL_DEFINITION('international standard',
'ap242_managed_model_based_3d_engineering',2020,#1187);
#1185=APPLICATION_PROTOCOL_DEFINITION('international standard',
'ap242_managed_model_based_3d_engineering',2020,#1188);
#1186=APPLICATION_CONTEXT('managed model based 3d engineering');
#1187=APPLICATION_CONTEXT('managed model based 3d engineering');
#1188=APPLICATION_CONTEXT('managed model based 3d engineering');
ENDSEC;
END-ISO-10303-21;
