ISO-10303-21;
HEADER;
/* Generated by software containing ST-Developer
 * from STEP Tools, Inc. (www.steptools.com) 
 */
/* OPTION: using custom renumber hook */

FILE_DESCRIPTION(
/* description */ ('STEP AP242 Edition 2',
'CAx-IF Rec.Pracs.---Representation and Presentation of Product Manufa
cturing Information (PMI)---4.0---2014-10-13',
'CAx-IF Rec.Pracs.---3D Tessellated Geometry---0.4---2014-09-14','2;1',
'CAx-IF Rec.Pracs.---User Defined Attributes---1.5---2016-08-15'),
/* implementation_level */ '2;1');

FILE_NAME(
/* name */ 'Left',
/* time_stamp */ '2026-05-24T19:26:00Z',
/* author */ (''),
/* organization */ (''),
/* preprocessor_version */ 'ST-DEVELOPER v20',
/* originating_system */ 'ONSHAPE BY PTC INC, 1.215',
/* authorisation */ '  ');

FILE_SCHEMA (('AP242_MANAGED_MODEL_BASED_3D_ENGINEERING_MIM_LF { 1 0 10303 442 3 1 4 }'));
ENDSEC;

DATA;
#10=TOROIDAL_SURFACE('',#370,0.002925,0.00075);
#11=CIRCLE('',#358,0.003675);
#12=CIRCLE('',#359,0.003675);
#13=CIRCLE('',#360,0.003675);
#14=CIRCLE('',#362,0.002925);
#15=CIRCLE('',#364,0.0017);
#16=CIRCLE('',#365,0.00075);
#17=CIRCLE('',#366,0.00075);
#18=CIRCLE('',#368,0.0017);
#19=CIRCLE('',#375,0.00075);
#20=CIRCLE('',#376,0.00075);
#21=CYLINDRICAL_SURFACE('',#357,0.003675);
#22=CYLINDRICAL_SURFACE('',#367,0.0017);
#23=CYLINDRICAL_SURFACE('',#377,0.00075);
#24=CYLINDRICAL_SURFACE('',#378,0.00075);
#25=SHAPE_REPRESENTATION_RELATIONSHIP('','',#348,#27);
#26=SHAPE_REPRESENTATION_RELATIONSHIP('','',#349,#28);
#27=ADVANCED_BREP_SHAPE_REPRESENTATION('',(#344),#572);
#28=ADVANCED_BREP_SHAPE_REPRESENTATION('',(#345),#573);
#29=ORIENTED_EDGE('',*,*,#109,.F.);
#30=ORIENTED_EDGE('',*,*,#110,.F.);
#31=ORIENTED_EDGE('',*,*,#111,.T.);
#32=ORIENTED_EDGE('',*,*,#112,.T.);
#33=ORIENTED_EDGE('',*,*,#113,.F.);
#34=ORIENTED_EDGE('',*,*,#112,.F.);
#35=ORIENTED_EDGE('',*,*,#114,.T.);
#36=ORIENTED_EDGE('',*,*,#115,.T.);
#37=ORIENTED_EDGE('',*,*,#116,.F.);
#38=ORIENTED_EDGE('',*,*,#115,.F.);
#39=ORIENTED_EDGE('',*,*,#117,.T.);
#40=ORIENTED_EDGE('',*,*,#110,.T.);
#41=ORIENTED_EDGE('',*,*,#111,.F.);
#42=ORIENTED_EDGE('',*,*,#117,.F.);
#43=ORIENTED_EDGE('',*,*,#114,.F.);
#44=ORIENTED_EDGE('',*,*,#109,.T.);
#45=ORIENTED_EDGE('',*,*,#113,.T.);
#46=ORIENTED_EDGE('',*,*,#116,.T.);
#47=ORIENTED_EDGE('',*,*,#118,.T.);
#48=ORIENTED_EDGE('',*,*,#119,.F.);
#49=ORIENTED_EDGE('',*,*,#120,.T.);
#50=ORIENTED_EDGE('',*,*,#121,.T.);
#51=ORIENTED_EDGE('',*,*,#122,.T.);
#52=ORIENTED_EDGE('',*,*,#123,.F.);
#53=ORIENTED_EDGE('',*,*,#124,.F.);
#54=ORIENTED_EDGE('',*,*,#125,.F.);
#55=ORIENTED_EDGE('',*,*,#126,.T.);
#56=ORIENTED_EDGE('',*,*,#127,.F.);
#57=ORIENTED_EDGE('',*,*,#128,.T.);
#58=ORIENTED_EDGE('',*,*,#129,.T.);
#59=ORIENTED_EDGE('',*,*,#130,.F.);
#60=ORIENTED_EDGE('',*,*,#131,.T.);
#61=ORIENTED_EDGE('',*,*,#132,.F.);
#62=ORIENTED_EDGE('',*,*,#122,.F.);
#63=ORIENTED_EDGE('',*,*,#133,.F.);
#64=ORIENTED_EDGE('',*,*,#127,.T.);
#65=ORIENTED_EDGE('',*,*,#133,.T.);
#66=ORIENTED_EDGE('',*,*,#118,.F.);
#67=ORIENTED_EDGE('',*,*,#126,.F.);
#68=ORIENTED_EDGE('',*,*,#132,.T.);
#69=ORIENTED_EDGE('',*,*,#134,.T.);
#70=ORIENTED_EDGE('',*,*,#135,.F.);
#71=ORIENTED_EDGE('',*,*,#119,.T.);
#72=ORIENTED_EDGE('',*,*,#130,.T.);
#73=ORIENTED_EDGE('',*,*,#136,.T.);
#74=ORIENTED_EDGE('',*,*,#137,.F.);
#75=ORIENTED_EDGE('',*,*,#138,.T.);
#76=ORIENTED_EDGE('',*,*,#139,.T.);
#77=ORIENTED_EDGE('',*,*,#140,.T.);
#78=ORIENTED_EDGE('',*,*,#128,.F.);
#79=ORIENTED_EDGE('',*,*,#121,.F.);
#80=ORIENTED_EDGE('',*,*,#137,.T.);
#81=ORIENTED_EDGE('',*,*,#141,.T.);
#82=ORIENTED_EDGE('',*,*,#139,.F.);
#83=ORIENTED_EDGE('',*,*,#120,.F.);
#84=ORIENTED_EDGE('',*,*,#135,.T.);
#85=ORIENTED_EDGE('',*,*,#142,.T.);
#86=ORIENTED_EDGE('',*,*,#141,.F.);
#87=ORIENTED_EDGE('',*,*,#136,.F.);
#88=ORIENTED_EDGE('',*,*,#129,.F.);
#89=ORIENTED_EDGE('',*,*,#140,.F.);
#90=ORIENTED_EDGE('',*,*,#142,.F.);
#91=ORIENTED_EDGE('',*,*,#134,.F.);
#92=ORIENTED_EDGE('',*,*,#131,.F.);
#93=ORIENTED_EDGE('',*,*,#138,.F.);
#94=ORIENTED_EDGE('',*,*,#123,.T.);
#95=ORIENTED_EDGE('',*,*,#143,.F.);
#96=ORIENTED_EDGE('',*,*,#144,.F.);
#97=ORIENTED_EDGE('',*,*,#145,.T.);
#98=ORIENTED_EDGE('',*,*,#125,.T.);
#99=ORIENTED_EDGE('',*,*,#146,.F.);
#100=ORIENTED_EDGE('',*,*,#147,.F.);
#101=ORIENTED_EDGE('',*,*,#143,.T.);
#102=ORIENTED_EDGE('',*,*,#124,.T.);
#103=ORIENTED_EDGE('',*,*,#145,.F.);
#104=ORIENTED_EDGE('',*,*,#148,.F.);
#105=ORIENTED_EDGE('',*,*,#146,.T.);
#106=ORIENTED_EDGE('',*,*,#144,.T.);
#107=ORIENTED_EDGE('',*,*,#147,.T.);
#108=ORIENTED_EDGE('',*,*,#148,.T.);
#109=EDGE_CURVE('',#149,#150,#177,.T.);
#110=EDGE_CURVE('',#151,#149,#178,.T.);
#111=EDGE_CURVE('',#151,#152,#179,.T.);
#112=EDGE_CURVE('',#152,#150,#180,.T.);
#113=EDGE_CURVE('',#150,#153,#181,.T.);
#114=EDGE_CURVE('',#152,#154,#182,.T.);
#115=EDGE_CURVE('',#154,#153,#183,.T.);
#116=EDGE_CURVE('',#153,#149,#184,.T.);
#117=EDGE_CURVE('',#154,#151,#185,.T.);
#118=EDGE_CURVE('',#155,#155,#11,.F.);
#119=EDGE_CURVE('',#156,#157,#186,.T.);
#120=EDGE_CURVE('',#156,#158,#12,.T.);
#121=EDGE_CURVE('',#158,#159,#187,.T.);
#122=EDGE_CURVE('',#159,#157,#13,.T.);
#123=EDGE_CURVE('',#160,#161,#188,.T.);
#124=EDGE_CURVE('',#162,#160,#189,.T.);
#125=EDGE_CURVE('',#161,#162,#190,.T.);
#126=EDGE_CURVE('',#163,#163,#14,.T.);
#127=EDGE_CURVE('',#164,#164,#15,.T.);
#128=EDGE_CURVE('',#159,#165,#191,.T.);
#129=EDGE_CURVE('',#165,#166,#16,.F.);
#130=EDGE_CURVE('',#167,#166,#192,.T.);
#131=EDGE_CURVE('',#167,#168,#17,.F.);
#132=EDGE_CURVE('',#157,#168,#193,.T.);
#133=EDGE_CURVE('',#169,#169,#18,.T.);
#134=EDGE_CURVE('',#168,#170,#194,.F.);
#135=EDGE_CURVE('',#156,#170,#195,.T.);
#136=EDGE_CURVE('',#166,#171,#196,.F.);
#137=EDGE_CURVE('',#172,#171,#197,.T.);
#138=EDGE_CURVE('',#172,#167,#198,.T.);
#139=EDGE_CURVE('',#158,#173,#199,.T.);
#140=EDGE_CURVE('',#173,#165,#200,.T.);
#141=EDGE_CURVE('',#171,#173,#19,.T.);
#142=EDGE_CURVE('',#170,#172,#20,.T.);
#143=EDGE_CURVE('',#174,#161,#201,.T.);
#144=EDGE_CURVE('',#175,#174,#202,.T.);
#145=EDGE_CURVE('',#175,#160,#203,.T.);
#146=EDGE_CURVE('',#176,#162,#204,.T.);
#147=EDGE_CURVE('',#174,#176,#205,.T.);
#148=EDGE_CURVE('',#176,#175,#206,.T.);
#149=VERTEX_POINT('',#482);
#150=VERTEX_POINT('',#483);
#151=VERTEX_POINT('',#485);
#152=VERTEX_POINT('',#487);
#153=VERTEX_POINT('',#491);
#154=VERTEX_POINT('',#493);
#155=VERTEX_POINT('',#503);
#156=VERTEX_POINT('',#505);
#157=VERTEX_POINT('',#506);
#158=VERTEX_POINT('',#508);
#159=VERTEX_POINT('',#510);
#160=VERTEX_POINT('',#514);
#161=VERTEX_POINT('',#515);
#162=VERTEX_POINT('',#517);
#163=VERTEX_POINT('',#520);
#164=VERTEX_POINT('',#523);
#165=VERTEX_POINT('',#525);
#166=VERTEX_POINT('',#527);
#167=VERTEX_POINT('',#529);
#168=VERTEX_POINT('',#531);
#169=VERTEX_POINT('',#535);
#170=VERTEX_POINT('',#540);
#171=VERTEX_POINT('',#544);
#172=VERTEX_POINT('',#546);
#173=VERTEX_POINT('',#550);
#174=VERTEX_POINT('',#559);
#175=VERTEX_POINT('',#561);
#176=VERTEX_POINT('',#565);
#177=LINE('',#481,#207);
#178=LINE('',#484,#208);
#179=LINE('',#486,#209);
#180=LINE('',#488,#210);
#181=LINE('',#490,#211);
#182=LINE('',#492,#212);
#183=LINE('',#494,#213);
#184=LINE('',#496,#214);
#185=LINE('',#497,#215);
#186=LINE('',#504,#216);
#187=LINE('',#509,#217);
#188=LINE('',#513,#218);
#189=LINE('',#516,#219);
#190=LINE('',#518,#220);
#191=LINE('',#524,#221);
#192=LINE('',#528,#222);
#193=LINE('',#532,#223);
#194=LINE('',#539,#224);
#195=LINE('',#541,#225);
#196=LINE('',#543,#226);
#197=LINE('',#545,#227);
#198=LINE('',#547,#228);
#199=LINE('',#549,#229);
#200=LINE('',#551,#230);
#201=LINE('',#558,#231);
#202=LINE('',#560,#232);
#203=LINE('',#562,#233);
#204=LINE('',#564,#234);
#205=LINE('',#566,#235);
#206=LINE('',#568,#236);
#207=VECTOR('',#387,1.);
#208=VECTOR('',#388,1.);
#209=VECTOR('',#389,1.);
#210=VECTOR('',#390,1.);
#211=VECTOR('',#393,1.);
#212=VECTOR('',#394,1.);
#213=VECTOR('',#395,1.);
#214=VECTOR('',#398,1.);
#215=VECTOR('',#399,1.);
#216=VECTOR('',#410,1.);
#217=VECTOR('',#413,1.);
#218=VECTOR('',#418,1.);
#219=VECTOR('',#419,1.);
#220=VECTOR('',#420,1.);
#221=VECTOR('',#427,1.);
#222=VECTOR('',#430,1.);
#223=VECTOR('',#433,1.);
#224=VECTOR('',#444,1.);
#225=VECTOR('',#445,1.);
#226=VECTOR('',#448,1.);
#227=VECTOR('',#449,1.);
#228=VECTOR('',#450,1.);
#229=VECTOR('',#453,1.);
#230=VECTOR('',#454,1.);
#231=VECTOR('',#467,1.);
#232=VECTOR('',#468,1.);
#233=VECTOR('',#469,1.);
#234=VECTOR('',#472,1.);
#235=VECTOR('',#473,1.);
#236=VECTOR('',#476,1.);
#237=EDGE_LOOP('',(#29,#30,#31,#32));
#238=EDGE_LOOP('',(#33,#34,#35,#36));
#239=EDGE_LOOP('',(#37,#38,#39,#40));
#240=EDGE_LOOP('',(#41,#42,#43));
#241=EDGE_LOOP('',(#44,#45,#46));
#242=EDGE_LOOP('',(#47));
#243=EDGE_LOOP('',(#48,#49,#50,#51));
#244=EDGE_LOOP('',(#52,#53,#54));
#245=EDGE_LOOP('',(#55));
#246=EDGE_LOOP('',(#56));
#247=EDGE_LOOP('',(#57,#58,#59,#60,#61,#62));
#248=EDGE_LOOP('',(#63));
#249=EDGE_LOOP('',(#64));
#250=EDGE_LOOP('',(#65));
#251=EDGE_LOOP('',(#66));
#252=EDGE_LOOP('',(#67));
#253=EDGE_LOOP('',(#68,#69,#70,#71));
#254=EDGE_LOOP('',(#72,#73,#74,#75));
#255=EDGE_LOOP('',(#76,#77,#78,#79));
#256=EDGE_LOOP('',(#80,#81,#82,#83,#84,#85));
#257=EDGE_LOOP('',(#86,#87,#88,#89));
#258=EDGE_LOOP('',(#90,#91,#92,#93));
#259=EDGE_LOOP('',(#94,#95,#96,#97));
#260=EDGE_LOOP('',(#98,#99,#100,#101));
#261=EDGE_LOOP('',(#102,#103,#104,#105));
#262=EDGE_LOOP('',(#106,#107,#108));
#263=FACE_BOUND('',#237,.T.);
#264=FACE_BOUND('',#238,.T.);
#265=FACE_BOUND('',#239,.T.);
#266=FACE_BOUND('',#240,.T.);
#267=FACE_BOUND('',#241,.T.);
#268=FACE_BOUND('',#242,.T.);
#269=FACE_BOUND('',#243,.T.);
#270=FACE_BOUND('',#244,.T.);
#271=FACE_BOUND('',#245,.T.);
#272=FACE_BOUND('',#246,.T.);
#273=FACE_BOUND('',#247,.T.);
#274=FACE_BOUND('',#248,.T.);
#275=FACE_BOUND('',#249,.T.);
#276=FACE_BOUND('',#250,.T.);
#277=FACE_BOUND('',#251,.T.);
#278=FACE_BOUND('',#252,.T.);
#279=FACE_BOUND('',#253,.T.);
#280=FACE_BOUND('',#254,.T.);
#281=FACE_BOUND('',#255,.T.);
#282=FACE_BOUND('',#256,.T.);
#283=FACE_BOUND('',#257,.T.);
#284=FACE_BOUND('',#258,.T.);
#285=FACE_BOUND('',#259,.T.);
#286=FACE_BOUND('',#260,.T.);
#287=FACE_BOUND('',#261,.T.);
#288=FACE_BOUND('',#262,.T.);
#289=PLANE('',#351);
#290=PLANE('',#352);
#291=PLANE('',#353);
#292=PLANE('',#354);
#293=PLANE('',#355);
#294=PLANE('',#361);
#295=PLANE('',#363);
#296=PLANE('',#369);
#297=PLANE('',#371);
#298=PLANE('',#372);
#299=PLANE('',#373);
#300=PLANE('',#374);
#301=PLANE('',#379);
#302=PLANE('',#380);
#303=PLANE('',#381);
#304=PLANE('',#382);
#305=ADVANCED_FACE('',(#263),#289,.T.);
#306=ADVANCED_FACE('',(#264),#290,.T.);
#307=ADVANCED_FACE('',(#265),#291,.T.);
#308=ADVANCED_FACE('',(#266),#292,.F.);
#309=ADVANCED_FACE('',(#267),#293,.T.);
#310=ADVANCED_FACE('',(#268,#269),#21,.T.);
#311=ADVANCED_FACE('',(#270,#271),#294,.T.);
#312=ADVANCED_FACE('',(#272,#273),#295,.F.);
#313=ADVANCED_FACE('',(#274,#275),#22,.F.);
#314=ADVANCED_FACE('',(#276),#296,.T.);
#315=ADVANCED_FACE('',(#277,#278),#10,.T.);
#316=ADVANCED_FACE('',(#279),#297,.F.);
#317=ADVANCED_FACE('',(#280),#298,.F.);
#318=ADVANCED_FACE('',(#281),#299,.T.);
#319=ADVANCED_FACE('',(#282),#300,.T.);
#320=ADVANCED_FACE('',(#283),#23,.T.);
#321=ADVANCED_FACE('',(#284),#24,.T.);
#322=ADVANCED_FACE('',(#285),#301,.F.);
#323=ADVANCED_FACE('',(#286),#302,.F.);
#324=ADVANCED_FACE('',(#287),#303,.F.);
#325=ADVANCED_FACE('',(#288),#304,.T.);
#326=CLOSED_SHELL('',(#305,#306,#307,#308,#309));
#327=CLOSED_SHELL('',(#310,#311,#312,#313,#314,#315,#316,#317,#318,#319,
#320,#321,#322,#323,#324,#325));
#328=STYLED_ITEM('',(#330),#344);
#329=STYLED_ITEM('',(#331),#345);
#330=PRESENTATION_STYLE_ASSIGNMENT((#332));
#331=PRESENTATION_STYLE_ASSIGNMENT((#333));
#332=SURFACE_STYLE_USAGE(.BOTH.,#334);
#333=SURFACE_STYLE_USAGE(.BOTH.,#335);
#334=SURFACE_SIDE_STYLE('',(#336));
#335=SURFACE_SIDE_STYLE('',(#337));
#336=SURFACE_STYLE_FILL_AREA(#338);
#337=SURFACE_STYLE_FILL_AREA(#339);
#338=FILL_AREA_STYLE('',(#340));
#339=FILL_AREA_STYLE('',(#341));
#340=FILL_AREA_STYLE_COLOUR('',#342);
#341=FILL_AREA_STYLE_COLOUR('',#343);
#342=COLOUR_RGB('',0.647058823529412,0.647058823529412,0.647058823529412);
#343=COLOUR_RGB('',0.615686274509804,0.811764705882353,0.929411764705882);
#344=MANIFOLD_SOLID_BREP('Part 2',#326);
#345=MANIFOLD_SOLID_BREP('Part 1',#327);
#346=SHAPE_DEFINITION_REPRESENTATION(#582,#348);
#347=SHAPE_DEFINITION_REPRESENTATION(#583,#349);
#348=SHAPE_REPRESENTATION('Part 2',(#350),#572);
#349=SHAPE_REPRESENTATION('Part 1',(#356),#573);
#350=AXIS2_PLACEMENT_3D('',#479,#383,#384);
#351=AXIS2_PLACEMENT_3D('',#480,#385,#386);
#352=AXIS2_PLACEMENT_3D('',#489,#391,#392);
#353=AXIS2_PLACEMENT_3D('',#495,#396,#397);
#354=AXIS2_PLACEMENT_3D('',#498,#400,#401);
#355=AXIS2_PLACEMENT_3D('',#499,#402,#403);
#356=AXIS2_PLACEMENT_3D('',#500,#404,#405);
#357=AXIS2_PLACEMENT_3D('',#501,#406,#407);
#358=AXIS2_PLACEMENT_3D('',#502,#408,#409);
#359=AXIS2_PLACEMENT_3D('',#507,#411,#412);
#360=AXIS2_PLACEMENT_3D('',#511,#414,#415);
#361=AXIS2_PLACEMENT_3D('',#512,#416,#417);
#362=AXIS2_PLACEMENT_3D('',#519,#421,#422);
#363=AXIS2_PLACEMENT_3D('',#521,#423,#424);
#364=AXIS2_PLACEMENT_3D('',#522,#425,#426);
#365=AXIS2_PLACEMENT_3D('',#526,#428,#429);
#366=AXIS2_PLACEMENT_3D('',#530,#431,#432);
#367=AXIS2_PLACEMENT_3D('',#533,#434,#435);
#368=AXIS2_PLACEMENT_3D('',#534,#436,#437);
#369=AXIS2_PLACEMENT_3D('',#536,#438,#439);
#370=AXIS2_PLACEMENT_3D('',#537,#440,#441);
#371=AXIS2_PLACEMENT_3D('',#538,#442,#443);
#372=AXIS2_PLACEMENT_3D('',#542,#446,#447);
#373=AXIS2_PLACEMENT_3D('',#548,#451,#452);
#374=AXIS2_PLACEMENT_3D('',#552,#455,#456);
#375=AXIS2_PLACEMENT_3D('',#553,#457,#458);
#376=AXIS2_PLACEMENT_3D('',#554,#459,#460);
#377=AXIS2_PLACEMENT_3D('',#555,#461,#462);
#378=AXIS2_PLACEMENT_3D('',#556,#463,#464);
#379=AXIS2_PLACEMENT_3D('',#557,#465,#466);
#380=AXIS2_PLACEMENT_3D('',#563,#470,#471);
#381=AXIS2_PLACEMENT_3D('',#567,#474,#475);
#382=AXIS2_PLACEMENT_3D('',#569,#477,#478);
#383=DIRECTION('',(0.,0.,1.));
#384=DIRECTION('',(1.,0.,0.));
#385=DIRECTION('',(-0.5,-0.866025403784438,0.));
#386=DIRECTION('',(0.866025403784438,-0.5,0.));
#387=DIRECTION('',(0.866025403784438,-0.5,0.));
#388=DIRECTION('',(0.,0.,1.));
#389=DIRECTION('',(0.866025403784438,-0.5,0.));
#390=DIRECTION('',(0.,0.,1.));
#391=DIRECTION('',(1.,-1.57209315010398E-15,0.));
#392=DIRECTION('',(1.57209315010398E-15,1.,0.));
#393=DIRECTION('',(1.57209315010398E-15,1.,0.));
#394=DIRECTION('',(1.57209315010398E-15,1.,0.));
#395=DIRECTION('',(0.,0.,1.));
#396=DIRECTION('',(-0.5,0.86602540378444,0.));
#397=DIRECTION('',(-0.86602540378444,-0.5,0.));
#398=DIRECTION('',(-0.86602540378444,-0.5,0.));
#399=DIRECTION('',(-0.86602540378444,-0.5,0.));
#400=DIRECTION('',(0.,0.,1.));
#401=DIRECTION('',(1.,0.,0.));
#402=DIRECTION('',(0.,0.,1.));
#403=DIRECTION('',(1.,0.,0.));
#404=DIRECTION('',(0.,0.,1.));
#405=DIRECTION('',(1.,0.,0.));
#406=DIRECTION('',(0.,0.,-1.));
#407=DIRECTION('',(-1.,0.,0.));
#408=DIRECTION('',(0.,0.,1.));
#409=DIRECTION('',(1.,0.,0.));
#410=DIRECTION('',(0.,0.,-1.));
#411=DIRECTION('',(0.,0.,1.));
#412=DIRECTION('',(1.,0.,0.));
#413=DIRECTION('',(0.,0.,-1.));
#414=DIRECTION('',(0.,0.,1.));
#415=DIRECTION('',(1.,0.,0.));
#416=DIRECTION('',(0.,0.,1.));
#417=DIRECTION('',(1.,0.,0.));
#418=DIRECTION('',(0.866025403784438,-0.5,0.));
#419=DIRECTION('',(-0.86602540378444,-0.5,0.));
#420=DIRECTION('',(1.57209315010398E-15,1.,0.));
#421=DIRECTION('',(0.,0.,1.));
#422=DIRECTION('',(1.,0.,0.));
#423=DIRECTION('',(0.,0.,1.));
#424=DIRECTION('',(1.,0.,0.));
#425=DIRECTION('',(0.,0.,-1.));
#426=DIRECTION('',(-1.,0.,0.));
#427=DIRECTION('',(0.,-1.,0.));
#428=DIRECTION('',(0.,0.,1.));
#429=DIRECTION('',(1.,0.,0.));
#430=DIRECTION('',(1.,0.,0.));
#431=DIRECTION('',(0.,0.,1.));
#432=DIRECTION('',(1.,0.,0.));
#433=DIRECTION('',(0.,-1.,0.));
#434=DIRECTION('',(0.,0.,-1.));
#435=DIRECTION('',(-1.,0.,0.));
#436=DIRECTION('',(0.,0.,-1.));
#437=DIRECTION('',(-1.,0.,0.));
#438=DIRECTION('',(0.,0.,-1.));
#439=DIRECTION('',(1.,0.,0.));
#440=DIRECTION('',(0.,0.,1.));
#441=DIRECTION('',(1.,0.,0.));
#442=DIRECTION('',(1.,0.,0.));
#443=DIRECTION('',(0.,0.,-1.));
#444=DIRECTION('',(0.,0.,-1.));
#445=DIRECTION('',(0.,-1.,0.));
#446=DIRECTION('',(0.,1.,0.));
#447=DIRECTION('',(0.,0.,1.));
#448=DIRECTION('',(0.,0.,-1.));
#449=DIRECTION('',(1.,0.,0.));
#450=DIRECTION('',(0.,0.,-1.));
#451=DIRECTION('',(1.,0.,0.));
#452=DIRECTION('',(0.,0.,-1.));
#453=DIRECTION('',(0.,-1.,0.));
#454=DIRECTION('',(0.,0.,-1.));
#455=DIRECTION('',(0.,0.,1.));
#456=DIRECTION('',(1.,0.,0.));
#457=DIRECTION('',(0.,0.,1.));
#458=DIRECTION('',(1.,0.,0.));
#459=DIRECTION('',(0.,0.,1.));
#460=DIRECTION('',(1.,0.,0.));
#461=DIRECTION('',(0.,0.,1.));
#462=DIRECTION('',(1.,0.,0.));
#463=DIRECTION('',(0.,0.,-1.));
#464=DIRECTION('',(-1.,0.,0.));
#465=DIRECTION('',(-0.5,-0.866025403784438,0.));
#466=DIRECTION('',(0.866025403784438,-0.5,0.));
#467=DIRECTION('',(0.,0.,1.));
#468=DIRECTION('',(0.866025403784438,-0.5,0.));
#469=DIRECTION('',(0.,0.,1.));
#470=DIRECTION('',(1.,-1.57209315010398E-15,0.));
#471=DIRECTION('',(1.57209315010398E-15,1.,0.));
#472=DIRECTION('',(0.,0.,1.));
#473=DIRECTION('',(1.57209315010398E-15,1.,0.));
#474=DIRECTION('',(-0.5,0.86602540378444,0.));
#475=DIRECTION('',(-0.86602540378444,-0.5,0.));
#476=DIRECTION('',(-0.86602540378444,-0.5,0.));
#477=DIRECTION('',(0.,0.,1.));
#478=DIRECTION('',(1.,0.,0.));
#479=CARTESIAN_POINT('',(0.,0.,0.));
#480=CARTESIAN_POINT('',(-0.000577350269189628,-0.001,0.004));
#481=CARTESIAN_POINT('',(-0.000577350269189628,-0.001,0.005));
#482=CARTESIAN_POINT('',(-0.00230940107675851,1.3010426069826E-18,0.005));
#483=CARTESIAN_POINT('',(0.00115470053837925,-0.002,0.005));
#484=CARTESIAN_POINT('',(-0.00230940107675851,1.3010426069826E-18,0.004));
#485=CARTESIAN_POINT('',(-0.00230940107675851,1.3010426069826E-18,0.004));
#486=CARTESIAN_POINT('',(-0.000577350269189628,-0.001,0.004));
#487=CARTESIAN_POINT('',(0.00115470053837925,-0.002,0.004));
#488=CARTESIAN_POINT('',(0.00115470053837925,-0.002,0.004));
#489=CARTESIAN_POINT('',(0.00115470053837925,-4.77048955893622E-18,0.004));
#490=CARTESIAN_POINT('',(0.00115470053837925,-4.77048955893622E-18,0.005));
#491=CARTESIAN_POINT('',(0.00115470053837926,0.002,0.005));
#492=CARTESIAN_POINT('',(0.00115470053837925,-4.77048955893622E-18,0.004));
#493=CARTESIAN_POINT('',(0.00115470053837926,0.002,0.004));
#494=CARTESIAN_POINT('',(0.00115470053837926,0.002,0.004));
#495=CARTESIAN_POINT('',(-0.000577350269189624,0.001,0.004));
#496=CARTESIAN_POINT('',(-0.000577350269189624,0.001,0.005));
#497=CARTESIAN_POINT('',(-0.000577350269189624,0.001,0.004));
#498=CARTESIAN_POINT('',(8.67361737988404E-19,-2.60208521396521E-18,0.004));
#499=CARTESIAN_POINT('',(8.67361737988404E-19,-2.60208521396521E-18,0.005));
#500=CARTESIAN_POINT('',(0.,0.,0.));
#501=CARTESIAN_POINT('',(8.02635995939691E-19,-3.03576608295941E-18,0.005));
#502=CARTESIAN_POINT('',(8.02635995939691E-19,-3.03576608295941E-18,0.00425));
#503=CARTESIAN_POINT('',(0.003675,-3.03576608295941E-18,0.00425));
#504=CARTESIAN_POINT('',(-0.002,-0.00308311936194497,0.002));
#505=CARTESIAN_POINT('',(-0.002,-0.00308311936194497,0.002));
#506=CARTESIAN_POINT('',(-0.002,-0.00308311936194497,0.));
#507=CARTESIAN_POINT('',(-4.33680868994202E-19,1.3010426069826E-18,0.002));
#508=CARTESIAN_POINT('',(0.002,-0.00308311936194498,0.002));
#509=CARTESIAN_POINT('',(0.002,-0.00308311936194498,0.002));
#510=CARTESIAN_POINT('',(0.002,-0.00308311936194498,0.));
#511=CARTESIAN_POINT('',(8.02635995939691E-19,-3.03576608295941E-18,0.));
#512=CARTESIAN_POINT('',(0.,-0.00075,0.005));
#513=CARTESIAN_POINT('',(-0.000577350269189628,-0.001,0.005));
#514=CARTESIAN_POINT('',(-0.00230940107675851,1.3010426069826E-18,0.005));
#515=CARTESIAN_POINT('',(0.00115470053837925,-0.002,0.005));
#516=CARTESIAN_POINT('',(-0.000577350269189624,0.001,0.005));
#517=CARTESIAN_POINT('',(0.00115470053837926,0.002,0.005));
#518=CARTESIAN_POINT('',(0.00115470053837925,-4.77048955893622E-18,0.005));
#519=CARTESIAN_POINT('',(8.02635995939691E-19,-3.03576608295941E-18,0.005));
#520=CARTESIAN_POINT('',(0.002925,-3.03576608295941E-18,0.005));
#521=CARTESIAN_POINT('',(0.,-0.00075,0.));
#522=CARTESIAN_POINT('',(0.,-1.04094977927525E-19,0.));
#523=CARTESIAN_POINT('',(-0.0017,-1.04094977927525E-19,0.));
#524=CARTESIAN_POINT('',(0.002,-0.00412905968097249,0.));
#525=CARTESIAN_POINT('',(0.002,-0.004425,0.));
#526=CARTESIAN_POINT('',(0.00125,-0.004425,0.));
#527=CARTESIAN_POINT('',(0.00125,-0.005175,0.));
#528=CARTESIAN_POINT('',(4.33680868994202E-19,-0.005175,0.));
#529=CARTESIAN_POINT('',(-0.00125,-0.005175,0.));
#530=CARTESIAN_POINT('',(-0.00125,-0.004425,0.));
#531=CARTESIAN_POINT('',(-0.002,-0.004425,0.));
#532=CARTESIAN_POINT('',(-0.002,-0.00412905968097249,0.));
#533=CARTESIAN_POINT('',(0.,-1.04094977927525E-19,0.001));
#534=CARTESIAN_POINT('',(0.,-1.04094977927525E-19,0.001));
#535=CARTESIAN_POINT('',(-0.0017,-1.04094977927525E-19,0.001));
#536=CARTESIAN_POINT('',(8.67361737988404E-19,-2.60208521396521E-18,0.001));
#537=CARTESIAN_POINT('',(8.02635995939691E-19,-3.03576608295941E-18,0.00425));
#538=CARTESIAN_POINT('',(-0.002,-0.00412905968097249,0.002));
#539=CARTESIAN_POINT('',(-0.002,-0.004425,0.002));
#540=CARTESIAN_POINT('',(-0.002,-0.004425,0.002));
#541=CARTESIAN_POINT('',(-0.002,-0.00412905968097249,0.002));
#542=CARTESIAN_POINT('',(4.33680868994202E-19,-0.005175,0.002));
#543=CARTESIAN_POINT('',(0.00125,-0.005175,0.002));
#544=CARTESIAN_POINT('',(0.00125,-0.005175,0.002));
#545=CARTESIAN_POINT('',(4.33680868994202E-19,-0.005175,0.002));
#546=CARTESIAN_POINT('',(-0.00125,-0.005175,0.002));
#547=CARTESIAN_POINT('',(-0.00125,-0.005175,0.002));
#548=CARTESIAN_POINT('',(0.002,-0.00412905968097249,0.002));
#549=CARTESIAN_POINT('',(0.002,-0.00412905968097249,0.002));
#550=CARTESIAN_POINT('',(0.002,-0.004425,0.002));
#551=CARTESIAN_POINT('',(0.002,-0.004425,0.));
#552=CARTESIAN_POINT('',(0.,-0.00075,0.002));
#553=CARTESIAN_POINT('',(0.00125,-0.004425,0.002));
#554=CARTESIAN_POINT('',(-0.00125,-0.004425,0.002));
#555=CARTESIAN_POINT('',(0.00125,-0.004425,0.002));
#556=CARTESIAN_POINT('',(-0.00125,-0.004425,0.002));
#557=CARTESIAN_POINT('',(-0.000577350269189628,-0.001,0.004));
#558=CARTESIAN_POINT('',(0.00115470053837925,-0.002,0.004));
#559=CARTESIAN_POINT('',(0.00115470053837925,-0.002,0.004));
#560=CARTESIAN_POINT('',(-0.000577350269189628,-0.001,0.004));
#561=CARTESIAN_POINT('',(-0.00230940107675851,1.3010426069826E-18,0.004));
#562=CARTESIAN_POINT('',(-0.00230940107675851,1.3010426069826E-18,0.004));
#563=CARTESIAN_POINT('',(0.00115470053837925,-4.77048955893622E-18,0.004));
#564=CARTESIAN_POINT('',(0.00115470053837926,0.002,0.004));
#565=CARTESIAN_POINT('',(0.00115470053837926,0.002,0.004));
#566=CARTESIAN_POINT('',(0.00115470053837925,-4.77048955893622E-18,0.004));
#567=CARTESIAN_POINT('',(-0.000577350269189624,0.001,0.004));
#568=CARTESIAN_POINT('',(-0.000577350269189624,0.001,0.004));
#569=CARTESIAN_POINT('',(8.67361737988404E-19,-2.60208521396521E-18,0.004));
#570=MECHANICAL_DESIGN_GEOMETRIC_PRESENTATION_REPRESENTATION('',(#328),
#572);
#571=MECHANICAL_DESIGN_GEOMETRIC_PRESENTATION_REPRESENTATION('',(#329),
#573);
#572=(
GEOMETRIC_REPRESENTATION_CONTEXT(3)
GLOBAL_UNCERTAINTY_ASSIGNED_CONTEXT((#574))
GLOBAL_UNIT_ASSIGNED_CONTEXT((#580,#578,#576))
REPRESENTATION_CONTEXT('Part 2','TOP_LEVEL_ASSEMBLY_PART')
);
#573=(
GEOMETRIC_REPRESENTATION_CONTEXT(3)
GLOBAL_UNCERTAINTY_ASSIGNED_CONTEXT((#575))
GLOBAL_UNIT_ASSIGNED_CONTEXT((#581,#579,#577))
REPRESENTATION_CONTEXT('Part 1','TOP_LEVEL_ASSEMBLY_PART')
);
#574=UNCERTAINTY_MEASURE_WITH_UNIT(LENGTH_MEASURE(1.E-8),#580,
'DISTANCE_ACCURACY_VALUE','Maximum Tolerance applied to model');
#575=UNCERTAINTY_MEASURE_WITH_UNIT(LENGTH_MEASURE(1.E-8),#581,
'DISTANCE_ACCURACY_VALUE','Maximum Tolerance applied to model');
#576=(
NAMED_UNIT(*)
SI_UNIT($,.STERADIAN.)
SOLID_ANGLE_UNIT()
);
#577=(
NAMED_UNIT(*)
SI_UNIT($,.STERADIAN.)
SOLID_ANGLE_UNIT()
);
#578=(
NAMED_UNIT(*)
PLANE_ANGLE_UNIT()
SI_UNIT($,.RADIAN.)
);
#579=(
NAMED_UNIT(*)
PLANE_ANGLE_UNIT()
SI_UNIT($,.RADIAN.)
);
#580=(
LENGTH_UNIT()
NAMED_UNIT(*)
SI_UNIT($,.METRE.)
);
#581=(
LENGTH_UNIT()
NAMED_UNIT(*)
SI_UNIT($,.METRE.)
);
#582=PRODUCT_DEFINITION_SHAPE('','',#584);
#583=PRODUCT_DEFINITION_SHAPE('','',#585);
#584=PRODUCT_DEFINITION('','',#588,#586);
#585=PRODUCT_DEFINITION('','',#589,#587);
#586=PRODUCT_DEFINITION_CONTEXT('',#600,'design');
#587=PRODUCT_DEFINITION_CONTEXT('',#601,'design');
#588=PRODUCT_DEFINITION_FORMATION_WITH_SPECIFIED_SOURCE('','',#592,
 .NOT_KNOWN.);
#589=PRODUCT_DEFINITION_FORMATION_WITH_SPECIFIED_SOURCE('','',#593,
 .NOT_KNOWN.);
#590=PRODUCT_RELATED_PRODUCT_CATEGORY('','',(#592));
#591=PRODUCT_RELATED_PRODUCT_CATEGORY('','',(#593));
#592=PRODUCT('Part 2','Part 2','Part 2',(#596));
#593=PRODUCT('Part 1','Part 1','Part 1',(#597));
#594=PRODUCT_CATEGORY('','');
#595=PRODUCT_CATEGORY('','');
#596=PRODUCT_CONTEXT('',#600,'mechanical');
#597=PRODUCT_CONTEXT('',#601,'mechanical');
#598=APPLICATION_PROTOCOL_DEFINITION('international standard',
'ap242_managed_model_based_3d_engineering',2020,#600);
#599=APPLICATION_PROTOCOL_DEFINITION('international standard',
'ap242_managed_model_based_3d_engineering',2020,#601);
#600=APPLICATION_CONTEXT('managed model based 3d engineering');
#601=APPLICATION_CONTEXT('managed model based 3d engineering');
ENDSEC;
END-ISO-10303-21;
